<?xml version="1.0" standalone="no"?><!DOCTYPE svg PUBLIC "-//W3C//DTD SVG 1.1//EN" "http://www.w3.org/Graphics/SVG/1.1/DTD/svg11.dtd"><svg t="1627441261203" class="icon" viewBox="0 0 19200 1024" version="1.1" xmlns="http://www.w3.org/2000/svg" p-id="2752" xmlns:xlink="http://www.w3.org/1999/xlink" width="3750" height="200"><defs><style type="text/css">@font-face { font-family: feedback-iconfont; src: url("//at.alicdn.com/t/font_1031158_1uhr8ri0pk5.eot?#iefix") format("embedded-opentype"), url("//at.alicdn.com/t/font_1031158_1uhr8ri0pk5.woff2") format("woff2"), url("//at.alicdn.com/t/font_1031158_1uhr8ri0pk5.woff") format("woff"), url("//at.alicdn.com/t/font_1031158_1uhr8ri0pk5.ttf") format("truetype"), url("//at.alicdn.com/t/font_1031158_1uhr8ri0pk5.svg#iconfont") format("svg"); }
</style></defs><path d="M358.0928 625.9712c14.336 0 25.9072 11.0592 25.9072 25.3952v102.8608c0 13.9776-11.776 25.344-25.9072 25.344H281.9072A25.4464 25.4464 0 0 1 256 754.2272v-102.912c0-13.9776 11.776-25.344 25.9072-25.344h76.1856z m204.8-102.4c14.336 0 25.9072 11.008 25.9072 25.4976v205.0048c0 14.08-11.776 25.4976-25.9072 25.4976H486.7072A25.4464 25.4464 0 0 1 460.8 754.0736v-205.0048c0-14.08 11.776-25.4976 25.9072-25.4976h76.1856z m204.8-102.4a26.112 26.112 0 0 1 25.9072 25.8048v306.8416c0 14.2336-11.776 25.7536-25.9072 25.7536h-76.1856a26.112 26.112 0 0 1-25.9072-25.7536V446.976c0-14.2336 11.776-25.8048 25.9072-25.8048h76.1856z m204.8-128c14.336 0 25.9072 11.0592 25.9072 25.4976v435.456c0 14.08-11.776 25.4464-25.9072 25.4464h-76.1856A25.4976 25.4976 0 0 1 870.4 754.176V318.6688c0-14.08 11.776-25.4976 25.9072-25.4976h76.1856zM18687.5392 256c70.8608 0 128.3072 54.784 128.3072 122.0096v267.9808c0 37.7344-17.92 71.424-46.08 93.7984l-7.2704 5.376a130.7136 130.7136 0 0 1-64.1024 22.4256l-10.24 0.4096H17815.552c-70.5536 0-127.744-54.784-127.744-122.0096V378.0096c0-67.3792 57.4976-122.0096 128.3072-122.0096h871.3728zM1663.3856 599.3984c40.8576 0 77.7728 16.384 104.0384 42.8544l6.3488 6.8096-108.5952 105.5232-110.7456-107.264a146.2784 146.2784 0 0 1 108.9536-47.9232z m6979.4816-281.7536c52.9408 0 92.928 18.7392 120.0128 56.1664 25.8048 35.1232 38.7584 85.4528 38.7584 149.8112 0 66.7136-14.1824 120.5248-41.216 162.6624-29.5424 43.3152-68.9152 65.536-118.1696 65.536-81.8176 0-128.5632-37.4784-140.288-111.7696h49.8688c9.216 47.4112 39.3728 71.3728 91.0336 71.3728 33.8432 0 60.928-16.384 81.2544-48.5376 19.0464-31.0272 28.8768-70.2464 28.8768-117.0432 0-2.9184-0.6144-8.192-0.6144-15.2064h-2.4576a127.3856 127.3856 0 0 1-47.36 50.3296c-19.712 11.6736-42.496 18.1248-68.3008 18.1248-42.4448 0-76.288-13.4656-102.144-39.7824-25.1904-25.1904-37.5296-57.9584-37.5296-98.304 0-41.5744 13.568-75.4688 41.8816-102.4 27.648-27.4944 63.3344-40.96 106.3936-40.96z m7740.672 0c52.3264 0 91.648 21.6576 118.784 66.0992 23.3472 37.4784 35.072 87.808 35.072 150.9888 0 63.1808-11.7248 113.5104-35.072 150.9376-27.136 43.9296-66.4576 66.1504-118.784 66.1504-52.8896 0-92.2624-22.2208-118.7328-66.1504-23.3472-37.4272-35.072-87.7568-35.072-150.9376s11.7248-113.5104 35.072-150.9888c26.4704-44.4416 65.8432-66.0992 118.784-66.0992z m369.152 0c52.3264 0 91.648 21.6576 118.784 66.0992 23.3472 37.4784 35.0208 87.808 35.0208 150.9888 0 63.1808-11.6736 113.5104-35.0208 150.9376-27.136 43.9296-66.4576 66.1504-118.784 66.1504-52.8896 0-92.2624-22.2208-118.7328-66.1504-23.3472-37.4272-35.072-87.7568-35.072-150.9376s11.7248-113.5104 35.072-150.9888c26.4704-44.4416 65.8432-66.0992 118.784-66.0992z m625.7152 0l-246.0672 434.176h-40.0384l246.784-434.176h39.3216zM8913.6128 672.768c9.8304 0 19.0464 3.5328 26.4192 10.5472a33.2288 33.2288 0 0 1 11.1104 25.1392 34.4576 34.4576 0 0 1-11.1104 25.7536 39.936 39.936 0 0 1-26.4192 9.9328 36.6592 36.6592 0 0 1-26.4704-9.9328 34.4576 34.4576 0 0 1-11.0592-25.7536c0-9.9328 3.6864-18.1248 11.0592-25.1392a34.816 34.816 0 0 1 26.4704-10.5472zM16133.12 325.8368v417.792h-50.4832V384.3584c-27.648 26.88-62.1056 45.6192-103.3216 57.344V393.728a268.8 268.8 0 0 0 61.4912-25.1904 251.904 251.904 0 0 0 52.9408-42.7008h39.3728z m-5806.3872 0l163.6864 356.352h1.8432l163.0208-356.352h62.7712v417.792h-50.432V411.2384h-1.8432l-152.0128 332.3904h-45.5168l-151.9616-332.3904h-1.8432v332.3904h-50.432v-417.792h62.72z m7065.1392 188.9792c32.6144 0 57.856 11.1104 75.6736 34.56 15.36 19.8656 23.3984 46.7968 23.3984 80.128 0 32.768-7.9872 59.6992-23.3984 80.1792-17.8176 22.2208-43.008 33.9456-75.6736 33.9456-33.1776 0-58.4192-11.7248-75.6736-33.9456-15.9744-21.0432-23.3472-47.4112-23.3472-80.1792 0-33.3312 7.3728-60.2624 23.3472-80.128 17.2544-23.4496 42.496-34.56 75.6736-34.56zM10046.8736 325.8368l172.9024 417.792h-54.784l-46.7456-117.0432h-201.8304l-46.7456 117.0432h-54.1184l172.8512-417.792h58.4704z m-768.4608 0v283.8016h71.3728v39.168h-71.3728v94.8224h-47.9744v-94.8224h-220.8768v-45.6192l221.4912-277.3504h47.36z m266.4448 0v417.792h-50.4832V384.3584c-27.648 26.88-62.1056 45.6192-103.3728 57.344V393.728a268.8 268.8 0 0 0 61.5424-25.1904 251.904 251.904 0 0 0 52.8896-42.7008h39.424z m9142.6816-21.0944h-871.3728c-42.496 0-77.0048 32.8192-77.0048 73.216v268.032c0 40.448 34.304 73.216 76.4416 73.216h872.4992c42.1376 0 76.4416-32.768 76.4416-73.216V378.0096c0-40.3456-34.56-73.216-77.0048-73.216z m-1295.616 241.664c-19.0464 0-32.5632 8.192-41.216 24.576-7.9872 14.08-11.6736 33.3824-11.6736 58.5216 0 24.0128 3.6864 43.3152 11.6736 57.344 8.6528 16.384 22.1696 25.1904 41.216 25.1904 18.4832 0 32-8.8064 41.2672-25.7536 7.3728-14.0288 11.6736-32.768 11.6736-56.7808 0-24.576-4.3008-43.8784-11.6736-57.9072-9.216-16.9984-22.784-25.1904-41.2672-25.1904z m-1008.384-187.8016c-39.3728 0-67.6352 19.8656-84.8896 60.2624-12.288 28.1088-18.432 66.7136-18.432 115.8656 0 48.5376 6.144 87.1936 18.432 115.8656 17.2544 39.7824 45.568 60.2624 84.8896 60.2624 39.424 0 67.6864-20.48 84.9408-60.2624 12.288-28.672 19.0464-67.328 19.0464-115.8656 0-49.152-6.7584-87.7568-19.0464-115.8656-17.2544-40.3968-45.568-60.2624-84.9408-60.2624z m369.152 0c-39.3728 0-67.6352 19.8656-84.8896 60.2624-12.288 28.1088-18.432 66.7136-18.432 115.8656 0 48.5376 6.144 87.1936 18.432 115.8656 17.2544 39.7824 45.568 60.2624 84.8896 60.2624 39.424 0 67.6864-20.48 84.9408-60.2624 12.288-28.672 19.0464-67.328 19.0464-115.8656 0-49.152-6.7584-87.7568-19.0464-115.8656-17.2544-40.3968-45.568-60.2624-84.9408-60.2624z m1909.6576-5.12c28.16 0 50.944 22.8352 50.944 50.944v215.1424c0 28.1088-22.8352 50.8928-50.944 50.8928h-820.992a50.944 50.944 0 0 1-50.944-50.8928V404.4288c0-28.1088 22.8352-50.8928 50.944-50.8928h820.992z m204.8 73.216c44.1856 10.8032 76.8512 48.9984 76.8512 94.4128 0 45.4144-32.6656 83.6096-76.9024 94.464v-188.928z m-9636.7104-38.2464h-1.8432l-176.5888 221.184h178.432v-221.184zM1663.3856 446.6176c82.8416 0 157.952 32.256 212.5312 84.5824l9.4208 9.472-55.7056 54.1184a226.1504 226.1504 0 0 0-166.2464-71.7824c-60.928 0-116.0704 23.552-156.416 61.7984l-8.3968 8.448-55.808-54.0672a306.1248 306.1248 0 0 1 220.6208-92.5696z m8355.84-69.2736h-2.5088l-84.2752 208.896h169.7792l-83.0464-208.896z m-1375.1296-19.3536c-30.1056 0-54.1184 9.3696-72.6016 28.672-18.432 19.3536-27.0336 43.9296-27.0336 74.3424 0 29.2352 8.6016 53.248 27.0336 70.8096 17.8688 18.1248 41.8816 27.4944 72.6016 27.4944 28.3136 0 52.3264-9.3696 71.9872-28.1088 18.432-18.688 28.3136-42.7008 28.3136-71.3728 0-29.2352-9.216-53.248-27.0848-71.9872-18.432-19.8656-43.008-29.8496-73.216-29.8496z m8435.3024-32.1536c32.6144 0 57.856 11.1104 75.6736 34.5088 15.36 19.9168 23.3984 46.7968 23.3984 80.1792 0 32.768-7.9872 59.6992-23.3984 80.1792-17.8176 22.2208-43.0592 33.8944-75.6736 33.8944-33.2288 0-58.4192-11.6736-75.6736-33.8944-15.9744-21.0944-23.3984-47.4112-23.3984-80.1792 0-33.3824 7.424-60.2624 23.3984-80.1792 17.2544-23.3984 42.496-34.5088 75.6736-34.5088zM8913.6128 458.6496c9.8304 0 19.0464 3.5328 26.4192 10.5472a33.2288 33.2288 0 0 1 11.1104 25.1392 34.4576 34.4576 0 0 1-11.1104 25.7536 39.936 39.936 0 0 1-26.4192 9.9328 36.6592 36.6592 0 0 1-26.4704-9.9328 34.4576 34.4576 0 0 1-11.0592-25.7536c0-9.9328 3.6864-18.1248 11.0592-25.1392a34.816 34.816 0 0 1 26.4704-10.5472z m8165.7856-101.2224c-19.0464 0-32.6144 8.192-41.216 24.576-7.9872 14.0288-11.6736 33.3312-11.6736 58.5216 0 23.9616 3.6864 43.3152 11.6736 57.344 8.6016 16.384 22.1696 25.1392 41.216 25.1392 18.432 0 32-8.7552 41.216-25.7536 7.3728-14.0288 11.7248-32.768 11.7248-56.7296 0-24.576-4.352-43.8784-12.288-57.9584-8.6528-16.9472-22.1696-25.1392-40.6528-25.1392zM1663.3856 293.7856c125.4912 0 239.2576 48.6912 322.304 127.6416l11.1104 10.9568-55.7056 54.1184a385.9968 385.9968 0 0 0-277.7088-116.3264c-103.3728 0-197.12 39.8336-265.728 104.5504l-10.6496 10.3936L1331.2 431.104a465.92 465.92 0 0 1 332.1856-137.3184z" p-id="2753"></path></svg>