<?xml version="1.0" standalone="no"?><!DOCTYPE svg PUBLIC "-//W3C//DTD SVG 1.1//EN" "http://www.w3.org/Graphics/SVG/1.1/DTD/svg11.dtd"><svg class="icon" width="200px" height="200.00px" viewBox="0 0 1024 1024" version="1.1" xmlns="http://www.w3.org/2000/svg"><path d="M512 85.333333c188.501333 0 341.333333 152.832 341.333333 341.333334 0 82.830222-28.359111 168.049778-69.489777 244.622222l-9.329778 16.896-9.728 16.554667c-11.548444 19.143111-23.808 37.575111-36.494222 55.125333l-10.979556 14.819555-11.150222 14.364445c-11.207111 14.136889-22.641778 27.534222-34.104889 40.078222l-11.463111 12.231111a594.602667 594.602667 0 0 1-45.283556 42.808889l-11.008 9.016889C567.978667 921.998222 535.096889 938.666667 512 938.666667c-23.096889 0-55.978667-16.668444-92.302222-45.511111l-11.008-8.988445a594.602667 594.602667 0 0 1-45.283556-42.808889l-11.463111-12.231111c-11.463111-12.544-22.897778-25.941333-34.133333-40.078222l-11.121778-14.364445-10.979556-14.791111a802.531556 802.531556 0 0 1-36.494222-55.153777l-9.728-16.554667-9.329778-16.867556C199.025778 594.716444 170.666667 509.44 170.666667 426.666667 170.666667 238.165333 323.498667 85.333333 512 85.333333z m0 56.888889C354.901333 142.222222 227.555556 269.568 227.555556 426.666667c0 97.934222 47.644444 212.337778 124.472888 313.656889a704.910222 704.910222 0 0 0 58.396445 67.640888l11.52 11.406223C461.852444 857.998222 497.208889 881.777778 512 881.777778s50.147556-23.779556 90.055111-62.407111l11.52-11.406223a704.910222 704.910222 0 0 0 58.396445-67.640888C748.771556 639.004444 796.444444 524.600889 796.444444 426.666667c0-157.098667-127.345778-284.444444-284.444444-284.444445z m0 142.222222a142.222222 142.222222 0 1 1 0 284.444445 142.222222 142.222222 0 0 1 0-284.444445z m0 56.888889a85.333333 85.333333 0 1 0 0 170.666667 85.333333 85.333333 0 0 0 0-170.666667z" /></svg>