<?xml version="1.0" standalone="no"?><!DOCTYPE svg PUBLIC "-//W3C//DTD SVG 1.1//EN" "http://www.w3.org/Graphics/SVG/1.1/DTD/svg11.dtd"><svg class="icon" width="200px" height="200.00px" viewBox="0 0 1024 1024" version="1.1" xmlns="http://www.w3.org/2000/svg"><path d="M853.333333 170.666667a113.777778 113.777778 0 0 1 113.777778 113.777777v455.111112a113.777778 113.777778 0 0 1-108.088889 113.635555L853.333333 853.333333H170.666667a113.777778 113.777778 0 0 1-113.777778-113.777777V284.444444a113.777778 113.777778 0 0 1 113.777778-113.777777h682.666666z m56.888889 568.888889H113.777778a56.746667 56.746667 0 0 0 18.232889 41.728l3.015111 2.616888a57.116444 57.116444 0 0 0 3.441778 2.56l-1.536-1.109333a56.860444 56.860444 0 0 0 12.714666 7.082667l3.811556 1.365333a56.490667 56.490667 0 0 0 8.533333 1.991111l-1.649778-0.284444c3.356444 0.625778 6.798222 0.938667 10.325334 0.938666h682.666666a57.315556 57.315556 0 0 0 10.325334-0.938666l-1.621334 0.284444c2.901333-0.455111 5.745778-1.137778 8.504889-1.991111l3.811556-1.365333a56.547556 56.547556 0 0 0 12.743111-7.082667l-1.564445 1.137778c1.166222-0.853333 2.332444-1.706667 3.441778-2.588445l3.015111-2.616888a57.258667 57.258667 0 0 0 14.421334-21.219556c2.446222-6.343111 3.811556-13.255111 3.811555-20.508444zM853.333333 227.555556H170.666667a56.888889 56.888889 0 0 0-56.746667 52.622222L113.777778 284.444444v398.222223h796.444444V284.444444a56.888889 56.888889 0 0 0-52.622222-56.746666L853.333333 227.555556zM235.975111 298.666667l35.555556 110.307555 35.413333-110.307555h56.689778l-67.128889 199.111111h-50.062222l-67.128889-199.111111h56.661333z m191.744 0v199.111111h-52.707555v-199.111111h52.707555z m112.298667 0c45.795556 0 71.537778 23.267556 71.537778 66.104889 0 41.329778-23.921778 64.654222-66.56 66.446222l-5.404445 0.113778-27.392-0.028445V497.777778h-52.906667v-199.111111h80.725334z m-1.991111 50.688l-25.827556-0.028445v31.317334h25.799111c9.045333 0 14.648889-1.507556 17.066667-3.584 2.133333-1.877333 3.555556-5.688889 3.555555-12.288 0-6.456889-1.308444-9.927111-3.527111-11.662223-2.275556-1.934222-6.712889-3.328-13.511111-3.697777l-3.584-0.056889z"  /></svg>