<svg t="1625723752277" class="icon" viewBox="0 0 1024 1024" version="1.1" xmlns="http://www.w3.org/2000/svg" p-id="12529" width="200" height="200"><path d="M851.057778 199.907556H172.117333a86.300444 86.300444 0 0 0-86.186666 86.215111v480.512a86.328889 86.328889 0 0 0 86.186666 86.215111H851.057778a86.328889 86.328889 0 0 0 86.215111-86.215111V286.122667a86.300444 86.300444 0 0 0-86.186667-86.186667z m30.663111 562.545777c0 19.228444-15.644444 34.901333-34.844445 34.901334H176.327111c-19.228444 0-34.872889-15.644444-34.872889-34.901334v-472.177777c0-19.2 15.644444-34.816 34.872889-34.816h670.549333c19.2 0 34.844444 15.644444 34.844445 34.844444v472.149333z m-581.404445-404.849777a18.119111 18.119111 0 0 0-18.090666-18.090667h-56.035556a18.119111 18.119111 0 0 0-18.147555 18.090667v55.950222a18.062222 18.062222 0 0 0 18.119111 18.119111h56.035555a18.119111 18.119111 0 0 0 18.119111-18.090667v-55.978666z m0 143.246222a18.119111 18.119111 0 0 0-18.090666-18.090667h-56.035556a18.119111 18.119111 0 0 0-18.147555 18.090667v55.978666a18.033778 18.033778 0 0 0 18.119111 18.090667h56.035555a18.090667 18.090667 0 0 0 18.119111-18.062222v-56.007111z m-18.090666 125.212444h-56.035556a18.119111 18.119111 0 0 0-18.147555 18.062222v55.978667a17.948444 17.948444 0 0 0 18.119111 18.119111h56.035555a18.119111 18.119111 0 0 0 18.119111-18.090666v-56.007112a18.119111 18.119111 0 0 0-18.090666-18.062222z m504.888889-192.910222h-433.493334a27.790222 27.790222 0 0 0 0 55.552h433.493334a27.790222 27.790222 0 0 0 0-55.552z m0 140.970667h-433.493334a27.790222 27.790222 0 0 0 0 55.523555h433.493334a27.790222 27.790222 0 0 0 0-55.523555z" p-id="12530"></path></svg>