<?xml version="1.0" standalone="no"?><!DOCTYPE svg PUBLIC "-//W3C//DTD SVG 1.1//EN" "http://www.w3.org/Graphics/SVG/1.1/DTD/svg11.dtd"><svg class="icon" width="200px" height="200.00px" viewBox="0 0 1024 1024" version="1.1" xmlns="http://www.w3.org/2000/svg"><path d="M398.222222 540.444444a56.888889 56.888889 0 0 1 56.888889 56.888889v199.111111a56.888889 56.888889 0 0 1-56.888889 56.888889H199.111111a56.888889 56.888889 0 0 1-56.888889-56.888889v-199.111111a56.888889 56.888889 0 0 1 56.888889-56.888889h199.111111z m455.111111 199.111112a28.444444 28.444444 0 0 1 0 56.888888H568.888889a28.444444 28.444444 0 0 1 0-56.888888h284.444444z m-455.111111-142.222223H199.111111v199.111111h199.111111v-199.111111z m455.111111 0a28.444444 28.444444 0 0 1 0 56.888889H568.888889a28.444444 28.444444 0 0 1 0-56.888889h284.444444zM398.222222 170.666667a56.888889 56.888889 0 0 1 56.888889 56.888889v199.111111a56.888889 56.888889 0 0 1-56.888889 56.888889H199.111111a56.888889 56.888889 0 0 1-56.888889-56.888889V227.555556a56.888889 56.888889 0 0 1 56.888889-56.888889h199.111111z m0 56.888889H199.111111v199.111111h199.111111V227.555556z m455.111111 142.222222a28.444444 28.444444 0 0 1 0 56.888889H568.888889a28.444444 28.444444 0 0 1 0-56.888889h284.444444z m0-142.222222a28.444444 28.444444 0 0 1 0 56.888888H568.888889a28.444444 28.444444 0 0 1 0-56.888888h284.444444z"  /></svg>