<?xml version="1.0" standalone="no"?><!DOCTYPE svg PUBLIC "-//W3C//DTD SVG 1.1//EN" "http://www.w3.org/Graphics/SVG/1.1/DTD/svg11.dtd"><svg class="icon" width="200px" height="200.00px" viewBox="0 0 1024 1024" version="1.1" xmlns="http://www.w3.org/2000/svg"><path d="M236.487111 73.159111c-31.089778 6.343111-55.836444 23.836444-88.234667 56.604445L117.504 161.848889c-72.248889 69.688889-21.76 252.615111 115.342222 430.648889l13.994667 17.777778a1121.080889 1121.080889 0 0 0 78.364444 87.495111c201.073778 202.268444 443.847111 292.636444 532.622223 212.679111l30.435555-29.269334c36.835556-35.612444 56.120889-61.553778 62.691556-94.691555 8.96-45.056-12.714667-88.576-65.763556-130.446222l-12.174222-9.614223-0.881778 0.284445-1.137778-0.853333c-86.641778-64.910222-142.051556-62.663111-199.509333-7.708445l-6.257778 6.115556-20.224 20.736c-4.750222 4.750222-15.843556 2.730667-31.886222-5.575111l-7.765333-4.266667a224.341333 224.341333 0 0 1-4.124445-2.474667l-8.760889-5.603555-9.386666-6.456889-4.920889-3.555556-10.296889-7.736889-10.808889-8.590222-5.632-4.608-11.605333-9.841778-12.117334-10.638222c-2.048-1.848889-4.124444-3.697778-6.200889-5.632l-12.771555-11.832889-13.169778-12.657778-13.539555-13.425777-15.075556-15.36-10.097778-10.581334-12.458666-13.368889-11.690667-12.970666-10.922667-12.515556-10.126222-12.060444-4.750222-5.859556-8.903111-11.264-8.078223-10.695111-7.253333-10.069333-6.4-9.443556-5.518222-8.732444a247.978667 247.978667 0 0 1-2.474667-4.124445l-4.238222-7.623111c-7.594667-14.506667-9.898667-24.291556-6.542222-27.960889l21.617778-21.447111 8.533333-8.903111c55.950222-60.245333 54.328889-117.020444-20.167111-210.773333-42.097778-52.963556-85.816889-74.439111-130.986667-65.223111z m585.016889 793.372445c-35.726222 35.868444-138.695111 15.644444-256.796444-53.219556l-16.981334-10.183111c-59.733333-36.721778-122.595556-85.504-182.186666-145.436445a1043.740444 1043.740444 0 0 1-104.277334-122.311111l-12.401778-17.464889C152.234667 378.311111 117.048889 248.177778 154.567111 205.368889l28.131556-29.44c28.017778-29.155556 46.904889-43.320889 65.166222-47.047111 21.504-4.380444 45.141333 7.224889 75.093333 44.913778l4.949334 6.314666 9.045333 11.918222c43.747556 59.221333 41.528889 83.427556 9.329778 118.072889l-7.793778 8.106667-21.987556 21.902222c-30.549333 33.166222-19.427556 77.511111 23.153778 136.362667l8.618667 11.576889 9.386666 11.946666 10.183112 12.316445 10.894222 12.714667 11.605333 13.084444 12.316445 13.454222 12.999111 13.880889 10.439111 10.894222 15.445333 15.758223 6.912 6.912 13.568 13.368888 13.226667 12.686223 12.885333 12.032 12.544 11.320889 6.144 5.404444 12.060445 10.24 11.719111 9.472 11.377777 8.760889c61.724444 46.08 108.771556 57.457778 143.473778 22.698667l19.854222-20.309334 5.489778-5.404444c37.717333-36.039111 63.488-36.892444 131.953778 16.583111l18.545778 14.791111 0.369778-0.142222 4.266666 3.868444c25.059556 23.523556 32.796444 43.064889 29.240889 61.070222-3.384889 16.952889-15.786667 34.474667-40.874667 59.420445l-11.150222 10.808889-10.524444 10.012444-11.121778 10.837334z"  /></svg>