<svg t="1625451297905" class="icon" viewBox="0 0 1024 1024" version="1.1" xmlns="http://www.w3.org/2000/svg" p-id="10339" width="200" height="200"><path d="M149.09293824 935.17800199l725.54900207-0.57442978h10.91416588l1.41398099-10.29554918a250.981628 250.981628 0 0 0 2.12097151-37.73561801 366.44201425 366.44201425 0 0 0-3.3582049-42.99385987 438.15736323 438.15736323 0 0 0-8.61644672-45.291579 373.37935855 373.37935855 0 0 0-12.72582903-41.84500029h0.04418691a343.42063605 343.42063605 0 0 0-54.3498948-94.73672719 369.6234715 369.6234715 0 0 0-82.9388232-75.47123602 387.51916857 387.51916857 0 0 0-215.32279458-64.82219161 392.37972827 392.37972827 0 0 0-78.0782635 8.21876459 408.28701456 408.28701456 0 0 0-76.17822652 23.6841818 381.06788026 381.06788026 0 0 0-68.66645245 37.55887039c-20.63528526 14.31655765-39.28215973 30.48896537-55.05688529 48.16372789-7.90945623 8.79319436-15.4212303 17.54220182-22.53532224 26.51214382a360.56515571 360.56515571 0 0 0-19.6189864 27.13076049c-6.36291451 9.72111939-12.15139925 19.79573404-17.45382802 30.13547012-5.43498947 10.69323133-10.60485751 22.22601389-15.46541722 34.907656a325.30400446 325.30400446 0 0 0-11.97465162 40.29845859c-3.5349525 14.89098742-6.62803595 31.15176897-8.74900745 47.36836359v0.04418689a385.22144944 385.22144944 0 0 0-3.40239178 43.92178491c-0.22093454 12.5932683 0.44186907 24.74466755 2.12097149 35.70302033l1.59072863 10.16298846h10.73741824z m169.76609417-682.90863745a123.81171155 123.81171155 0 0 0-1.23723338 17.10033276c0 26.77726525 5.03730733 51.12425063 13.96306239 72.77583474 9.54437177 23.15393892 23.55162109 43.3031682 40.65195383 60.05000571 9.19087652 8.96994199 19.26549116 17.01195893 30.09128322 23.99349014 10.86997897 7.06990501 22.53532223 13.03513737 34.77509529 17.89569707a208.73894554 208.73894554 0 0 0 76.26660033 14.58167908c24.25861157 0 48.64978387-4.33031682 71.75953589-13.3002588a192.92003308 192.92003308 0 0 0 98.00655827-85.0156078 180.72444691 180.72444691 0 0 0 20.06085546-54.57082932 172.59405616 172.59405616 0 0 0-16.34915534-112.10218137 189.65020199 189.65020199 0 0 0-90.7157187-86.69471023 198.13408802 198.13408802 0 0 0-41.31475744-13.56538025 207.85520741 207.85520741 0 0 0-87.75519597 0.57442978 200.38762023 200.38762023 0 0 0-41.22638362 13.9630624 189.11995914 189.11995914 0 0 0-89.52267223 87.22495312 209.40174914 209.40174914 0 0 0-13.56538025 37.55887038 185.14313757 185.14313757 0 0 0-3.88844775 19.53061259z m363.52567842 206.79472167a242.40936818 242.40936818 0 0 0-11.44440873 10.86997896l-12.68164212 12.77001593 17.10033275 6.40710141c7.99783005 2.96052272 16.92358514 6.71640976 26.15864855 10.95835278a540.84773357 540.84773357 0 0 1 53.15684833 28.19124625c7.51177407 4.59543826 14.40493147 9.27925033 20.32597692 13.69794097l12.23977305 9.23506341-0.13256072 0.13256071a442.7528015 442.7528015 0 0 1 49.4893351 44.45202779c6.27454069 6.49547523 12.54908141 13.34444573 19.08874353 20.76784597h-0.0441869c12.50489449 14.13981003 23.86092942 29.2959189 33.97973098 45.2032052 10.33973609 16.34915535 19.4864257 33.31692737 27.39588191 50.9033161a415.35691957 415.35691957 0 0 1 20.1492293 55.67550198c5.30242877 18.60268756 9.54437177 38.3100478 12.46070757 59.07789377 0.88373813 6.00941926 1.76747625 19.00036972 2.47446676 34.99602982 0.79536432 17.453828 1.3256072 34.907656 1.59072864 52.361484 0.22093454 14.27237074 0.26512144 27.79356409 0 38.13330017a125.13731874 125.13731874 0 0 1-1.59072864 21.03296743 27.1307605 27.1307605 0 0 1-4.2861299 9.1908765 31.06339516 31.06339516 0 0 1-7.24665264 7.24665265 37.64724419 37.64724419 0 0 1-10.60485753 5.16986803 41.49150505 41.49150505 0 0 1-11.70953017 1.76747626c-86.16446736 1.14885956-177.1453075 0.75117741-266.84472738 0.35349526h-3.35820487l-12.72582904-0.04418691-111.04169562-0.44186907v0.08837383H109.23634874v0.08837379c-4.8605597 0-9.27925033-0.44186907-13.16769809-1.32560718a36.10070247 36.10070247 0 0 1-11.75371708-4.77218588 27.30750811 27.30750811 0 0 1-7.73270862-7.42340027 31.68201184 31.68201184 0 0 1-4.41869064-9.36762414l-0.44186906-1.67910244v-0.57442978a141.39810029 141.39810029 0 0 1-1.32560718-17.67476254 1029.55491766 1029.55491766 0 0 1-0.22093454-37.07281442c0.17674763-17.93988398 0.66280359-36.76350606 1.32560719-52.44985783 0.66280359-16.26078154 1.54654172-29.60522723 2.38609294-35.79139413l1.413981-10.29554918h0.17674764a441.86906337 441.86906337 0 0 1 30.93083443-104.72296802c8.04201696-18.20500541 17.23289347-35.34952507 27.2191343-51.25681134 10.383923-16.57008987 21.69577102-31.81457257 33.58204882-45.51251353 12.01883853-13.78631477 23.63999488-26.07027474 35.34952507-37.11700133a389.90526151 389.90526151 0 0 1 74.05725502-55.71968889c13.74212788-8.13039075 28.45636768-15.95147318 44.54040159-23.94930323l2.73958819-1.32560719h0.13256073a152.93088285 152.93088285 0 0 1 11.57696945-4.8605597l0.39768215-0.13256071c4.41869063-1.76747625 8.83738127-3.4907656 13.38863263-5.70011092l13.74212787-6.62803595-9.72111939-11.40022184a63.62914512 63.62914512 0 0 0-5.56755021-5.74429783h-0.0441869c-1.81166317-1.63491553-4.50706445-3.88844775-7.42340026-6.3629145a281.33803264 281.33803264 0 0 1-17.49801493-15.64216485 197.69221895 197.69221895 0 0 1-21.12134121-24.30279848 259.81900926 259.81900926 0 0 1-36.80769298-69.59437748 231.98125827 231.98125827 0 0 1-5.12568113-133.97470001c5.12568113-19.5306126 12.72582902-38.44260851 22.49113531-56.11737106 9.67693249-17.58638873 21.56321029-34.06810478 35.34952508-49.04746604a260.0841307 260.0841307 0 0 1 116.4324982-72.59908711A272.50065138 272.50065138 0 0 1 511.82325237 25.94403028c28.63311531 0 55.58712817 4.10938229 80.42016953 11.66534328a253.94215072 253.94215072 0 0 1 150.67735061 124.56288897c9.27925033 17.67476253 16.52590298 36.3658239 21.34227578 55.54294126a238.60929422 238.60929422 0 0 1 7.37921335 58.14996874 228.6672403 228.6672403 0 0 1-12.28395997 74.54331099 235.03015481 235.03015481 0 0 1-36.2332632 67.16409764c-8.17457767 10.60485751-14.09562311 17.4096411-19.00036971 22.40276151-4.99312043 5.16986804-8.92575507 8.3955122-13.21188501 11.8862778a247.44667549 247.44667549 0 0 0-8.52807292 7.20246574z" p-id="10340" fill=""></path></svg>