<?xml version="1.0" standalone="no"?><!DOCTYPE svg PUBLIC "-//W3C//DTD SVG 1.1//EN" "http://www.w3.org/Graphics/SVG/1.1/DTD/svg11.dtd"><svg class="icon" width="200px" height="200.00px" viewBox="0 0 1024 1024" version="1.1" xmlns="http://www.w3.org/2000/svg"><path d="M369.777778 142.222222a113.777778 113.777778 0 0 1 113.777778 113.777778v512a113.777778 113.777778 0 0 1-113.777778 113.777778H199.111111a113.777778 113.777778 0 0 1-113.777778-113.777778V256a113.777778 113.777778 0 0 1 113.777778-113.777778h170.666667z m455.111111 398.222222a113.777778 113.777778 0 0 1 113.777778 113.777778v113.777778a113.777778 113.777778 0 0 1-113.777778 113.777778h-170.666667a113.777778 113.777778 0 0 1-113.777778-113.777778v-113.777778a113.777778 113.777778 0 0 1 113.777778-113.777778h170.666667zM369.777778 199.111111H199.111111a56.888889 56.888889 0 0 0-56.746667 52.622222L142.222222 256v512a56.888889 56.888889 0 0 0 52.622222 56.746667L199.111111 824.888889h170.666667a56.888889 56.888889 0 0 0 56.746666-52.622222L426.666667 768V256a56.888889 56.888889 0 0 0-52.622223-56.746667L369.777778 199.111111z m455.111111 398.222222h-170.666667a56.888889 56.888889 0 0 0-56.746666 52.622223L597.333333 654.222222v113.777778a56.888889 56.888889 0 0 0 52.622223 56.746667L654.222222 824.888889h170.666667a56.888889 56.888889 0 0 0 56.746667-52.622222L881.777778 768v-113.777778a56.888889 56.888889 0 0 0-52.622222-56.746666L824.888889 597.333333z m-530.375111-75.264l79.416889 79.416889a14.222222 14.222222 0 0 1-10.040889 24.291556H204.999111a14.222222 14.222222 0 0 1-10.040889-24.291556l79.416889-79.416889a14.222222 14.222222 0 0 1 20.138667 0zM824.888889 142.222222a113.777778 113.777778 0 0 1 113.777778 113.777778v113.777778a113.777778 113.777778 0 0 1-113.777778 113.777778h-170.666667a113.777778 113.777778 0 0 1-113.777778-113.777778V256a113.777778 113.777778 0 0 1 113.777778-113.777778h170.666667z m-469.333333 256a42.666667 42.666667 0 1 1 0 85.333334 42.666667 42.666667 0 0 1 0-85.333334zM824.888889 199.111111h-170.666667a56.888889 56.888889 0 0 0-56.746666 52.622222L597.333333 256v113.777778a56.888889 56.888889 0 0 0 52.622223 56.746666L654.222222 426.666667h170.666667a56.888889 56.888889 0 0 0 56.746667-52.622223L881.777778 369.777778V256a56.888889 56.888889 0 0 0-52.622222-56.746667L824.888889 199.111111z"  /></svg>