<?xml version="1.0" standalone="no"?><!DOCTYPE svg PUBLIC "-//W3C//DTD SVG 1.1//EN" "http://www.w3.org/Graphics/SVG/1.1/DTD/svg11.dtd"><svg class="icon" width="200px" height="200.00px" viewBox="0 0 1024 1024" version="1.1" xmlns="http://www.w3.org/2000/svg"><path d="M512 56.888889c211.911111 0 385.194667 165.546667 397.511111 374.385778A85.361778 85.361778 0 0 1 967.111111 512v85.333333a85.333333 85.333333 0 0 1-88.405333 85.276445c-43.434667 118.385778-152.832 204.970667-283.676445 215.210666A56.888889 56.888889 0 0 1 540.444444 938.666667h-56.888888a56.888889 56.888889 0 1 1 0-113.777778h56.888888a56.888889 56.888889 0 0 1 53.930667 38.741333c115.029333-9.813333 211.285333-85.447111 250.936889-189.127111A85.390222 85.390222 0 0 1 796.444444 597.333333v-85.333333c0-36.835556 23.352889-68.238222 56.064-80.184889C840.561778 254.151111 692.679111 113.777778 512 113.777778S183.409778 254.179556 171.463111 431.815111A85.333333 85.333333 0 0 1 227.555556 512v85.333333a85.333333 85.333333 0 0 1-170.666667 0v-85.333333c0-37.404444 24.092444-69.205333 57.6-80.725333C126.805333 222.435556 300.060444 56.888889 512 56.888889zM142.222222 483.555556a28.444444 28.444444 0 0 0-28.444444 28.444444v85.333333a28.444444 28.444444 0 0 0 56.888889 0v-85.333333a28.444444 28.444444 0 0 0-28.444445-28.444444z m739.555556 0a28.444444 28.444444 0 0 0-28.444445 28.444444v85.333333a28.444444 28.444444 0 0 0 56.888889 0v-85.333333a28.444444 28.444444 0 0 0-28.444444-28.444444z"  /></svg>