<?xml version="1.0" standalone="no"?><!DOCTYPE svg PUBLIC "-//W3C//DTD SVG 1.1//EN" "http://www.w3.org/Graphics/SVG/1.1/DTD/svg11.dtd"><svg class="icon" width="200px" height="200.00px" viewBox="0 0 1024 1024" version="1.1" xmlns="http://www.w3.org/2000/svg"><path d="M796.444444 113.777778a85.333333 85.333333 0 0 1 85.191112 80.327111L881.777778 199.111111v40.647111a28.444444 28.444444 0 0 1-56.689778 3.299556L824.888889 239.786667V199.111111a28.444444 28.444444 0 0 0-25.116445-28.245333L796.444444 170.666667H227.555556a28.444444 28.444444 0 0 0-28.245334 25.116444L199.111111 199.111111v625.777778a28.444444 28.444444 0 0 0 25.116445 28.245333L227.555556 853.333333h568.888888a28.444444 28.444444 0 0 1 3.328 56.689778L796.444444 910.222222H227.555556a85.333333 85.333333 0 0 1-85.191112-80.327111L142.222222 824.888889V199.111111a85.333333 85.333333 0 0 1 80.327111-85.191111L227.555556 113.777778h568.888888z m0 455.111111a113.777778 113.777778 0 0 1 113.777778 113.777778v85.333333a28.444444 28.444444 0 0 1-28.444444 28.444444H426.666667a28.444444 28.444444 0 0 1-28.444445-28.444444v-85.333333a113.777778 113.777778 0 0 1 113.777778-113.777778h284.444444z m0 56.888889H512a56.888889 56.888889 0 0 0-56.746667 52.622222L455.111111 682.666667v56.888889h398.222222v-56.888889a56.888889 56.888889 0 0 0-52.622222-56.746667L796.444444 625.777778zM654.222222 256a142.222222 142.222222 0 1 1 0 284.444444 142.222222 142.222222 0 0 1 0-284.444444z m-256 170.666667a28.444444 28.444444 0 0 1 0 56.888889h-113.777778a28.444444 28.444444 0 0 1 0-56.888889h113.777778z m256-113.777778a85.333333 85.333333 0 1 0 0 170.666667 85.333333 85.333333 0 0 0 0-170.666667z m-199.111111 0a28.444444 28.444444 0 0 1 0 56.888889h-170.666667a28.444444 28.444444 0 0 1 0-56.888889h170.666667z" /></svg>