<?xml version="1.0" standalone="no"?><!DOCTYPE svg PUBLIC "-//W3C//DTD SVG 1.1//EN" "http://www.w3.org/Graphics/SVG/1.1/DTD/svg11.dtd"><svg class="icon" width="200px" height="200.00px" viewBox="0 0 1024 1024" version="1.1" xmlns="http://www.w3.org/2000/svg"><path d="M654.222222 113.777778a28.444444 28.444444 0 0 1 28.444445 28.444444v56.888889h113.777777a113.777778 113.777778 0 0 1 113.777778 113.777778v483.555555a113.777778 113.777778 0 0 1-113.777778 113.777778H227.555556a113.777778 113.777778 0 0 1-113.777778-113.777778V312.888889a113.777778 113.777778 0 0 1 113.777778-113.777778h113.777777V142.222222a28.444444 28.444444 0 0 1 56.888889 0v56.888889h227.555556V142.222222a28.444444 28.444444 0 0 1 28.444444-28.444444zM341.333333 256H227.555556a56.888889 56.888889 0 0 0-56.746667 52.622222L170.666667 312.888889v483.555555a56.888889 56.888889 0 0 0 52.622222 56.746667L227.555556 853.333333h568.888888a56.888889 56.888889 0 0 0 56.746667-52.622222L853.333333 796.444444V312.888889a56.888889 56.888889 0 0 0-52.622222-56.746667L796.444444 256h-113.777777v56.888889a28.444444 28.444444 0 0 1-56.888889 0V256h-227.555556v56.888889a28.444444 28.444444 0 0 1-56.888889 0V256z m227.555556 369.777778a28.444444 28.444444 0 0 1 0 56.888889H284.444444a28.444444 28.444444 0 0 1 0-56.888889h284.444445z m170.666667-170.666667a28.444444 28.444444 0 0 1 0 56.888889H284.444444a28.444444 28.444444 0 0 1 0-56.888889h455.111112z" /></svg>