<?xml version="1.0" standalone="no"?><!DOCTYPE svg PUBLIC "-//W3C//DTD SVG 1.1//EN" "http://www.w3.org/Graphics/SVG/1.1/DTD/svg11.dtd"><svg class="icon" width="200px" height="200.00px" viewBox="0 0 1024 1024" version="1.1" xmlns="http://www.w3.org/2000/svg"><path d="M834.133333 113.777778a85.333333 85.333333 0 0 1 82.773334 64.597333l49.351111 197.176889a28.444444 28.444444 0 0 1 0.768 9.102222c-3.128889 40.391111-24.775111 75.491556-56.775111 98.56L910.222222 796.444444a85.333333 85.333333 0 0 1-80.327111 85.191112L824.888889 881.777778H199.111111a85.333333 85.333333 0 0 1-85.191111-80.327111L113.777778 796.444444V483.271111c-31.146667-22.471111-52.48-56.32-56.348445-95.431111l-0.455111-2.673778a40.106667 40.106667 0 0 1 1.137778-12.515555l48.924444-194.360889A85.333333 85.333333 0 0 1 189.724444 113.777778zM717.084444 473.429333l-2.218666 2.048a153.315556 153.315556 0 0 1-93.269334 36.380445l-7.082666 0.142222a153.799111 153.799111 0 0 1-100.323556-36.522667L512 473.429333l-2.275556 2.048a153.315556 153.315556 0 0 1-93.240888 36.380445l-7.054223 0.142222a153.799111 153.799111 0 0 1-100.352-36.522667l-2.247111-2.048-2.247111 2.048a153.315556 153.315556 0 0 1-93.240889 36.380445l-7.111111 0.142222c-11.491556 0-22.727111-1.223111-33.536-3.584V796.444444a28.444444 28.444444 0 0 0 25.116445 28.245334L199.111111 824.888889h625.777778a28.444444 28.444444 0 0 0 28.245333-25.116445L853.333333 796.444444l0.028445-288.028444a158.606222 158.606222 0 0 1-33.649778 3.584 153.799111 153.799111 0 0 1-100.323556-36.522667l-2.275555-2.048zM654.222222 711.111111a28.444444 28.444444 0 0 1 0 56.888889H369.777778a28.444444 28.444444 0 0 1 0-56.888889h284.444444z m179.911111-540.444444H189.724444a28.444444 28.444444 0 0 0-27.591111 21.504l-48.042666 190.947555 0.512 3.754667c6.144 36.835556 41.016889 65.848889 84.167111 68.096l5.404444 0.142222c33.052444 0 62.776889-15.786667 78.734222-40.419555a28.444444 28.444444 0 0 1 47.758223 0c15.928889 24.632889 45.681778 40.419556 78.705777 40.419555 32.995556 0 62.748444-15.786667 78.705778-40.419555a28.444444 28.444444 0 0 1 47.729778 0C551.822222 439.324444 581.518222 455.111111 614.542222 455.111111c33.024 0 62.748444-15.786667 78.705778-40.419555a28.444444 28.444444 0 0 1 47.786667 0c15.928889 24.632889 45.653333 40.419556 78.677333 40.419555 44.657778 0 81.550222-28.586667 89.315556-65.763555l0.796444-4.864-48.099556-192.284445a28.444444 28.444444 0 0 0-24.376888-21.333333L834.133333 170.666667z"  /></svg>