<?xml version="1.0" standalone="no"?><!DOCTYPE svg PUBLIC "-//W3C//DTD SVG 1.1//EN" "http://www.w3.org/Graphics/SVG/1.1/DTD/svg11.dtd"><svg t="1652941870786" class="icon" viewBox="0 0 1024 1024" version="1.1" xmlns="http://www.w3.org/2000/svg" p-id="3395" xmlns:xlink="http://www.w3.org/1999/xlink" width="200" height="200"><defs><style type="text/css">@font-face { font-family: feedback-iconfont; src: url("//at.alicdn.com/t/font_1031158_u69w8yhxdu.woff2?t=1630033759944") format("woff2"), url("//at.alicdn.com/t/font_1031158_u69w8yhxdu.woff?t=1630033759944") format("woff"), url("//at.alicdn.com/t/font_1031158_u69w8yhxdu.ttf?t=1630033759944") format("truetype"); }
</style></defs><path d="M398.222222 113.777778a85.333333 85.333333 0 0 1 85.191111 80.327111L483.555556 199.111111v625.777778a85.333333 85.333333 0 0 1-80.327112 85.191111L398.222222 910.222222H199.111111a85.333333 85.333333 0 0 1-85.191111-80.327111L113.777778 824.888889V199.111111a85.333333 85.333333 0 0 1 80.327111-85.191111L199.111111 113.777778h199.111111z m239.303111 505.742222l228.408889 76.145778a14.222222 14.222222 0 0 1-1.080889 27.306666l-81.351111 20.309334 104.163556 104.163555a28.444444 28.444444 0 0 1-37.546667 42.581334l-2.673778-2.360889-104.163555-104.135111-20.337778 81.351111a14.222222 14.222222 0 0 1-27.278222 1.024l-76.117334-228.380445a14.222222 14.222222 0 0 1 17.976889-17.976889zM398.222222 170.666667H199.111111a28.444444 28.444444 0 0 0-28.245333 25.116444L170.666667 199.111111v625.777778a28.444444 28.444444 0 0 0 25.116444 28.245333L199.111111 853.333333h199.111111a28.444444 28.444444 0 0 0 28.245334-25.116444L426.666667 824.888889V199.111111a28.444444 28.444444 0 0 0-28.444445-28.444444z m-103.708444 322.958222l79.416889 79.416889a14.222222 14.222222 0 0 1-10.040889 24.291555H204.999111a14.222222 14.222222 0 0 1-10.040889-24.291555l79.416889-79.416889a14.222222 14.222222 0 0 1 20.138667 0zM824.888889 113.777778a85.333333 85.333333 0 0 1 85.191111 80.327111L910.222222 199.111111v284.444445a85.333333 85.333333 0 0 1-80.327111 85.191111L824.888889 568.888889h-170.666667a85.333333 85.333333 0 0 1-85.191111-80.327111L568.888889 483.555556V199.111111a85.333333 85.333333 0 0 1 80.327111-85.191111L654.222222 113.777778h170.666667z m0 56.888889h-170.666667a28.444444 28.444444 0 0 0-28.245333 25.116444L625.777778 199.111111v284.444445a28.444444 28.444444 0 0 0 25.116444 28.245333L654.222222 512h170.666667a28.444444 28.444444 0 0 0 28.245333-25.116444L853.333333 483.555556V199.111111a28.444444 28.444444 0 0 0-28.444444-28.444444z m-469.333333 227.555555a42.666667 42.666667 0 1 1 0 85.333334 42.666667 42.666667 0 0 1 0-85.333334zM796.444444 256a28.444444 28.444444 0 0 1 0 56.888889h-28.444444v113.777778a28.444444 28.444444 0 0 1-56.888889 0v-113.777778h-28.444444a28.444444 28.444444 0 0 1 0-56.888889h113.777777z" p-id="3396"></path></svg>