<?xml version="1.0" standalone="no"?><!DOCTYPE svg PUBLIC "-//W3C//DTD SVG 1.1//EN" "http://www.w3.org/Graphics/SVG/1.1/DTD/svg11.dtd"><svg t="1566534382055" class="icon" viewBox="0 0 1024 1024" version="1.1" xmlns="http://www.w3.org/2000/svg" p-id="9631" xmlns:xlink="http://www.w3.org/1999/xlink" width="64" height="64"><defs><style type="text/css"></style></defs><path d="M497.92 673.088a37.824 37.824 0 0 1-4.224-0.256l-108.096-13.504a34.24 34.24 0 0 1-29.76-29.76l-13.44-108.096a34.432 34.432 0 0 1 9.792-28.544l446.08-462.08a105.408 105.408 0 0 1 148.928 0l21.12 21.12c19.968 19.84 30.848 46.272 30.848 74.496 0 28.16-10.88 54.528-30.848 74.496l-446.08 462.08a34.304 34.304 0 0 1-24.32 10.048zM420.544 594.56l64.96 8.128L919.68 152.32a36.544 36.544 0 0 0 0-51.84l-21.12-21.184a36.736 36.736 0 0 0-51.968 0L412.416 529.6l8.128 64.96z" p-id="9632"></path><path d="M512 41.6a41.6 41.6 0 0 1-41.6 41.6H128a44.8 44.8 0 0 0-44.8 44.8v768a44.8 44.8 0 0 0 44.8 44.8h768a44.8 44.8 0 0 0 44.8-44.8V553.6a41.6 41.6 0 1 1 83.2 0V896a128 128 0 0 1-128 128H128a128 128 0 0 1-128-128V128a128 128 0 0 1 128-128h342.4A41.6 41.6 0 0 1 512 41.6z" p-id="9633"></path></svg>