<?xml version="1.0" standalone="no"?><!DOCTYPE svg PUBLIC "-//W3C//DTD SVG 1.1//EN" "http://www.w3.org/Graphics/SVG/1.1/DTD/svg11.dtd"><svg class="icon" width="200px" height="200.00px" viewBox="0 0 1024 1024" version="1.1" xmlns="http://www.w3.org/2000/svg"><path d="M844.828444 200.817778l115.683556 184.746666c6.656 10.638222 9.102222 23.324444 7.025778 35.640889l-1.024 4.551111-114.773334 428.430223a50.944 50.944 0 0 1-57.884444 37.034666l-4.522667-0.995555-299.178666-80.213334 46.421333-46.421333 261.745778 70.144 112.583111-420.209778-62.037333-98.986666-4.039112-113.720889zM487.139556 85.361778l274.176 9.784889a55.210667 55.210667 0 0 1 52.906666 48.924444l0.284445 4.295111 9.813333 274.176c0.483556 13.596444-4.096 26.851556-12.714667 37.262222l-3.413333 3.726223-373.105778 373.077333a55.210667 55.210667 0 0 1-74.552889 3.242667l-3.527111-3.242667L73.102222 552.675556a55.210667 55.210667 0 0 1-3.242666-74.581334l3.242666-3.527111L446.122667 101.546667a55.210667 55.210667 0 0 1 35.925333-16.099556l5.12-0.056889zM485.831111 142.222222L114.460444 513.621333l281.6 281.6 371.342223-371.370666-9.699556-271.900445L485.831111 142.222222z m188.387556 93.212445c31.971556 31.971556 32.256 83.712 0.426666 115.541333-31.857778 31.857778-83.569778 31.573333-115.541333-0.398222s-32.256-83.712-0.398222-115.541334c31.829333-31.857778 83.569778-31.573333 115.512889 0.398223z m-75.292445 39.822222a24.803556 24.803556 0 0 0 0.398222 35.100444 24.803556 24.803556 0 0 0 35.100445 0.398223 24.803556 24.803556 0 0 0-0.426667-35.072 24.803556 24.803556 0 0 0-35.072-0.426667z"  /></svg>