<?xml version="1.0" standalone="no"?><!DOCTYPE svg PUBLIC "-//W3C//DTD SVG 1.1//EN" "http://www.w3.org/Graphics/SVG/1.1/DTD/svg11.dtd"><svg class="icon" width="200px" height="200.00px" viewBox="0 0 1024 1024" version="1.1" xmlns="http://www.w3.org/2000/svg"><path d="M824.888889 142.222222a113.777778 113.777778 0 0 1 113.777778 113.777778v512a113.777778 113.777778 0 0 1-113.777778 113.777778H199.111111a113.777778 113.777778 0 0 1-113.777778-113.777778V256a113.777778 113.777778 0 0 1 113.777778-113.777778h625.777778z m0 56.888889H199.111111a56.888889 56.888889 0 0 0-56.746667 52.622222L142.222222 256v512a56.888889 56.888889 0 0 0 52.622222 56.746667L199.111111 824.888889h625.777778a56.888889 56.888889 0 0 0 56.746667-52.622222L881.777778 768V256a56.888889 56.888889 0 0 0-52.622222-56.746667L824.888889 199.111111z m-113.777778 483.555556a28.444444 28.444444 0 0 1 0 56.888889H312.888889a28.444444 28.444444 0 0 1 0-56.888889h398.222222z m-177.265778-344.064l80.440889 80.440889-201.102222 201.130666h-80.497778v-80.440889l201.159111-201.130666z m80.440889-40.220445l40.220445 40.220445a28.444444 28.444444 0 0 1 0 40.220444l-20.110223 20.110222-80.440888-80.440889 20.110222-20.110222a28.444444 28.444444 0 0 1 40.220444 0z" /></svg>