<?xml version="1.0" standalone="no"?><!DOCTYPE svg PUBLIC "-//W3C//DTD SVG 1.1//EN" "http://www.w3.org/Graphics/SVG/1.1/DTD/svg11.dtd"><svg class="icon" width="200px" height="200.00px" viewBox="0 0 1024 1024" version="1.1" xmlns="http://www.w3.org/2000/svg"><path d="M398.222222 682.666667a85.333333 85.333333 0 0 1 85.333334 85.333333v56.888889a85.333333 85.333333 0 0 1-85.333334 85.333333H142.222222a85.333333 85.333333 0 0 1-85.333333-85.333333v-56.888889a85.333333 85.333333 0 0 1 85.333333-85.333333z m483.555556-256a85.333333 85.333333 0 0 1 85.333333 85.333333v312.888889a85.333333 85.333333 0 0 1-85.333333 85.333333h-256a85.333333 85.333333 0 0 1-85.333334-85.333333V512a85.333333 85.333333 0 0 1 85.333334-85.333333zM398.222222 739.555556H142.222222a28.444444 28.444444 0 0 0-28.444444 28.444444v56.888889a28.444444 28.444444 0 0 0 28.444444 28.444444h256a28.444444 28.444444 0 0 0 28.444445-28.444444v-56.888889a28.444444 28.444444 0 0 0-28.444445-28.444444z m483.555556-256h-256a28.444444 28.444444 0 0 0-28.444445 28.444444v312.888889a28.444444 28.444444 0 0 0 28.444445 28.444444h256a28.444444 28.444444 0 0 0 28.444444-28.444444V512a28.444444 28.444444 0 0 0-28.444444-28.444444z m-56.888889 85.333333a28.444444 28.444444 0 0 1 0 56.888889h-42.666667v128a28.444444 28.444444 0 0 1-56.888889 0V625.777778H682.666667a28.444444 28.444444 0 0 1 0-56.888889h142.222222z m-426.666667-142.222222a85.333333 85.333333 0 0 1 85.333334 85.333333v56.888889a85.333333 85.333333 0 0 1-85.333334 85.333333H142.222222a85.333333 85.333333 0 0 1-85.333333-85.333333v-56.888889a85.333333 85.333333 0 0 1 85.333333-85.333333z m0 56.888889H142.222222a28.444444 28.444444 0 0 0-28.444444 28.444444v56.888889a28.444444 28.444444 0 0 0 28.444444 28.444444h256a28.444444 28.444444 0 0 0 28.444445-28.444444v-56.888889a28.444444 28.444444 0 0 0-28.444445-28.444444zM881.777778 113.777778a85.333333 85.333333 0 0 1 85.333333 85.333333v113.777778a85.333333 85.333333 0 0 1-85.333333 85.333333H142.222222a85.333333 85.333333 0 0 1-85.333333-85.333333V199.111111a85.333333 85.333333 0 0 1 85.333333-85.333333z m0 56.888889H142.222222a28.444444 28.444444 0 0 0-28.444444 28.444444v113.777778a28.444444 28.444444 0 0 0 28.444444 28.444444h739.555556a28.444444 28.444444 0 0 0 28.444444-28.444444V199.111111a28.444444 28.444444 0 0 0-28.444444-28.444444z"  /></svg>