<?xml version="1.0" standalone="no"?><!DOCTYPE svg PUBLIC "-//W3C//DTD SVG 1.1//EN" "http://www.w3.org/Graphics/SVG/1.1/DTD/svg11.dtd"><svg class="icon" width="200px" height="200.00px" viewBox="0 0 1024 1024" version="1.1" xmlns="http://www.w3.org/2000/svg"><path d="M768 142.222222a113.777778 113.777778 0 0 1 113.777778 113.777778v512a113.777778 113.777778 0 0 1-113.777778 113.777778H256a113.777778 113.777778 0 0 1-113.777778-113.777778V256a113.777778 113.777778 0 0 1 113.777778-113.777778h512z m0 56.888889H256a56.888889 56.888889 0 0 0-56.746667 52.622222L199.111111 256v512a56.888889 56.888889 0 0 0 52.622222 56.746667L256 824.888889h512a56.888889 56.888889 0 0 0 56.746667-52.622222L824.888889 768V256a56.888889 56.888889 0 0 0-52.622222-56.746667L768 199.111111z m-139.719111 74.865778v97.166222h98.759111v51.768889h-98.759111v241.322667c0 46.990222-23.096889 70.883556-67.697778 70.883555h-90.794667l-11.946666-53.361778c29.468444 2.389333 57.344 3.982222 83.626666 3.982223 20.707556 0 31.857778-11.946667 31.857778-35.84v-219.022223c-62.122667 106.723556-145.749333 190.350222-250.88 251.676445l-30.264889-50.972445c99.555556-50.972444 178.403556-121.059556 236.544-208.668444h-223.004444v-51.768889h267.605333V273.976889h54.954667z"  /></svg>