<?xml version="1.0" standalone="no"?><!DOCTYPE svg PUBLIC "-//W3C//DTD SVG 1.1//EN" "http://www.w3.org/Graphics/SVG/1.1/DTD/svg11.dtd"><svg class="icon" width="200px" height="200.00px" viewBox="0 0 1024 1024" version="1.1" xmlns="http://www.w3.org/2000/svg"><path d="M346.993778 136.391111l2.673778 2.389333 117.219555 117.191112h90.197333l117.248-117.191112 2.673778-2.389333a28.444444 28.444444 0 0 1 37.546667 42.609778L637.525333 256H796.444444a113.777778 113.777778 0 0 1 113.777778 113.777778v398.222222a113.777778 113.777778 0 0 1-113.777778 113.777778H227.555556a113.777778 113.777778 0 0 1-113.777778-113.777778V369.777778a113.777778 113.777778 0 0 1 113.777778-113.777778h158.890666l-76.999111-76.999111a28.444444 28.444444 0 0 1 37.546667-42.609778zM796.444444 312.888889H227.555556a56.888889 56.888889 0 0 0-56.746667 52.622222L170.666667 369.777778v398.222222a56.888889 56.888889 0 0 0 52.622222 56.746667L227.555556 824.888889h568.888888a56.888889 56.888889 0 0 0 56.746667-52.622222L853.333333 768V369.777778a56.888889 56.888889 0 0 0-52.622222-56.746667L796.444444 312.888889z m-333.368888 121.002667c6.741333 0 13.340444 1.991111 18.944 5.717333l154.737777 103.168a34.133333 34.133333 0 0 1 0 56.803555l-154.737777 103.139556a34.133333 34.133333 0 0 1-53.077334-28.416v-206.279111a34.133333 34.133333 0 0 1 34.133334-34.133333z m22.755555 76.629333v121.258667l90.965333-60.586667-90.965333-60.672z"  /></svg>