<?xml version="1.0" standalone="no"?><!DOCTYPE svg PUBLIC "-//W3C//DTD SVG 1.1//EN" "http://www.w3.org/Graphics/SVG/1.1/DTD/svg11.dtd"><svg t="1646202975359" class="icon" viewBox="0 0 1024 1024" version="1.1" xmlns="http://www.w3.org/2000/svg" p-id="29654" xmlns:xlink="http://www.w3.org/1999/xlink" width="200" height="200"><defs><style type="text/css"></style></defs><path d="M828.956444 113.777778a81.208889 81.208889 0 0 1 81.123556 76.373333l0.142222 4.750222V563.768889a28.444444 28.444444 0 0 1-56.689778 3.299555L853.333333 563.768889V194.901333a24.291556 24.291556 0 0 0-21.333333-24.035555L828.956444 170.666667H195.043556a24.348444 24.348444 0 0 0-24.177778 21.219555L170.666667 194.901333V827.448889c0 12.316444 9.244444 22.499556 21.219555 24.035555l3.043556 0.199112L564.963556 853.333333a28.444444 28.444444 0 0 1 3.043555 56.718223l-3.299555 0.170666-370.033778-1.649778a81.208889 81.208889 0 0 1-80.753778-76.202666L113.777778 827.448889V194.901333c0-43.235556 33.848889-78.506667 76.515555-80.981333L195.015111 113.777778h633.912889z m-219.875555 477.297778l228.408889 76.145777a14.222222 14.222222 0 0 1-1.080889 27.306667l-81.322667 20.309333 104.135111 104.163556a28.444444 28.444444 0 0 1-37.546666 42.581333l-2.673778-2.360889-104.163556-104.135111-20.337777 81.351111a14.222222 14.222222 0 0 1-27.278223 1.024l-76.117333-228.380444a14.222222 14.222222 0 0 1 17.976889-17.976889z" p-id="29655"></path></svg>