<?xml version="1.0" standalone="no"?><!DOCTYPE svg PUBLIC "-//W3C//DTD SVG 1.1//EN" "http://www.w3.org/Graphics/SVG/1.1/DTD/svg11.dtd"><svg class="icon" width="200px" height="200.00px" viewBox="0 0 1024 1024" version="1.1" xmlns="http://www.w3.org/2000/svg"><path d="M440.888889 796.444444a42.666667 42.666667 0 1 1 0 85.333334 42.666667 42.666667 0 0 1 0-85.333334z m-142.222222 0a42.666667 42.666667 0 1 1 0 85.333334 42.666667 42.666667 0 0 1 0-85.333334z m284.444444 0a42.666667 42.666667 0 1 1 0 85.333334 42.666667 42.666667 0 0 1 0-85.333334z m142.222222 0a42.666667 42.666667 0 1 1 0 85.333334 42.666667 42.666667 0 0 1 0-85.333334zM824.888889 142.222222a113.777778 113.777778 0 0 1 113.777778 113.777778v398.222222a113.777778 113.777778 0 0 1-108.088889 113.635556L824.888889 768H182.869333A97.536 97.536 0 0 1 85.333333 670.464l0.995556-1.137778A114.830222 114.830222 0 0 1 85.333333 654.222222V256a113.777778 113.777778 0 0 1 113.777778-113.777778h625.777778z m-421.205333 257.820445L150.186667 683.292444a56.888889 56.888889 0 0 0 44.657777 27.676445L199.111111 711.111111h625.777778a56.888889 56.888889 0 0 0 56.746667-52.622222L881.777778 654.222222v-30.776889l-80.241778-87.864889-93.525333 90.794667-3.356445 2.929778a85.333333 85.333333 0 0 1-116.593778-7.168l-3.555555-4.039111-180.821333-218.055111zM824.888889 199.111111H199.111111a56.888889 56.888889 0 0 0-56.746667 52.622222L142.222222 256v350.890667l219.079111-244.792889a56.888889 56.888889 0 0 1 86.186667 1.621333l180.792889 218.055111a28.444444 28.444444 0 0 0 40.049778 3.754667l1.678222-1.507556 91.875555-89.230222a56.888889 56.888889 0 0 1 76.885334-2.218667l4.181333 4.010667L881.777778 539.079111V256a56.888889 56.888889 0 0 0-52.622222-56.746667L824.888889 199.111111z m-106.666667 56.888889a92.444444 92.444444 0 1 1 0 184.888889 92.444444 92.444444 0 0 1 0-184.888889z m0 56.888889a35.555556 35.555556 0 1 0 0 71.111111 35.555556 35.555556 0 0 0 0-71.111111z"  /></svg>