<?xml version="1.0" standalone="no"?><!DOCTYPE svg PUBLIC "-//W3C//DTD SVG 1.1//EN" "http://www.w3.org/Graphics/SVG/1.1/DTD/svg11.dtd"><svg class="icon" width="200px" height="200.00px" viewBox="0 0 1024 1024" version="1.1" xmlns="http://www.w3.org/2000/svg"><path d="M881.777778 727.779556c9.472 0 17.891556 4.636444 23.04 11.776h19.626666a42.666667 42.666667 0 0 1 42.666667 42.666666v85.333334a42.666667 42.666667 0 0 1-42.666667 42.666666h-85.333333a42.666667 42.666667 0 0 1-42.666667-42.666666V853.333333h-4.892444a28.444444 28.444444 0 0 1 0-56.888889H796.444444v-14.222222a42.666667 42.666667 0 0 1 38.570667-42.467555L839.111111 739.555556h19.626667a28.416 28.416 0 0 1 23.04-11.776zM184.888889 739.555556A42.666667 42.666667 0 0 1 227.555556 782.222222v14.222222h23.552a28.444444 28.444444 0 0 1 0 56.888889H227.555556v14.222223a42.666667 42.666667 0 0 1-38.570667 42.467555L184.888889 910.222222h-85.333333A42.666667 42.666667 0 0 1 56.888889 867.555556v-85.333334A42.666667 42.666667 0 0 1 99.555556 739.555556z m521.329778 56.888888a28.444444 28.444444 0 1 1 0 56.888889h-28.444445a28.444444 28.444444 0 0 1 0-56.888889h28.444445z m-113.777778 0a28.444444 28.444444 0 1 1 0 56.888889h-28.444445a28.444444 28.444444 0 0 1 0-56.888889h28.444445z m-113.777778 0a28.444444 28.444444 0 1 1 0 56.888889h-28.444444a28.444444 28.444444 0 0 1 0-56.888889h28.444444z m-113.777778 0a28.444444 28.444444 0 1 1 0 56.888889h-28.444444a28.444444 28.444444 0 0 1 0-56.888889h28.444444zM910.222222 796.444444h-56.888889v56.888889h56.888889v-56.888889zM170.666667 796.444444H113.777778v56.888889h56.888889v-56.888889z m-28.444445-163.754666a28.444444 28.444444 0 0 1 28.444445 28.444444v28.444445a28.444444 28.444444 0 0 1-56.888889 0v-28.444445a28.444444 28.444444 0 0 1 28.444444-28.444444z m739.555556-18.688a28.444444 28.444444 0 0 1 28.444444 28.444444v28.444445a28.444444 28.444444 0 1 1-56.888889 0v-28.444445a28.444444 28.444444 0 0 1 28.444445-28.444444zM142.222222 518.912a28.444444 28.444444 0 0 1 28.444445 28.444444v28.444445a28.444444 28.444444 0 0 1-56.888889 0v-28.444445a28.444444 28.444444 0 0 1 28.444444-28.444444z m739.555556-18.688a28.444444 28.444444 0 0 1 28.444444 28.444444v28.444445a28.444444 28.444444 0 1 1-56.888889 0v-28.444445a28.444444 28.444444 0 0 1 28.444445-28.444444zM142.222222 405.134222a28.444444 28.444444 0 0 1 28.444445 28.444445v28.444444a28.444444 28.444444 0 0 1-56.888889 0v-28.444444a28.444444 28.444444 0 0 1 28.444444-28.444445z m739.555556-18.688a28.444444 28.444444 0 0 1 28.444444 28.444445v28.444444a28.444444 28.444444 0 1 1-56.888889 0v-28.444444a28.444444 28.444444 0 0 1 28.444445-28.444445zM142.222222 291.356444a28.444444 28.444444 0 0 1 28.444445 28.444445v28.444444a28.444444 28.444444 0 0 1-56.888889 0v-28.444444a28.444444 28.444444 0 0 1 28.444444-28.444445zM924.444444 113.777778A42.666667 42.666667 0 0 1 967.111111 156.444444v85.333334a42.666667 42.666667 0 0 1-42.666667 42.666666h-19.626666c3.413333 4.664889 5.404444 10.439111 5.404444 16.668445v28.444444a28.444444 28.444444 0 1 1-56.888889 0v-28.444444c0-6.257778 1.991111-12.003556 5.404445-16.668445h-19.626667A42.666667 42.666667 0 0 1 796.444444 241.777778v-15.928889a28.444444 28.444444 0 0 1 0-53.475556V156.444444A42.666667 42.666667 0 0 1 839.111111 113.777778z m-739.555555 0A42.666667 42.666667 0 0 1 227.555556 156.444444v15.928889A28.387556 28.387556 0 0 1 237.340444 170.666667h28.444445a28.444444 28.444444 0 1 1 0 56.888889h-28.444445a28.387556 28.387556 0 0 1-9.728-1.706667L227.555556 241.777778A42.666667 42.666667 0 0 1 184.888889 284.444444h-85.333333A42.666667 42.666667 0 0 1 56.888889 241.777778v-85.333334A42.666667 42.666667 0 0 1 99.555556 113.777778z m194.645333 56.888889a28.444444 28.444444 0 0 1 0 56.888889h-28.444444a28.444444 28.444444 0 1 1 0-56.888889h28.444444z m113.777778 0a28.444444 28.444444 0 0 1 0 56.888889h-28.444444a28.444444 28.444444 0 1 1 0-56.888889h28.444444z m113.777778 0a28.444444 28.444444 0 0 1 0 56.888889h-28.444445a28.444444 28.444444 0 1 1 0-56.888889h28.444445z m113.777778 0a28.444444 28.444444 0 0 1 0 56.888889h-28.444445a28.444444 28.444444 0 1 1 0-56.888889h28.444445zM910.222222 170.666667h-56.888889v56.888889h56.888889V170.666667zM170.666667 170.666667H113.777778v56.888889h56.888889V170.666667z"  /></svg>