<?xml version="1.0" standalone="no"?><!DOCTYPE svg PUBLIC "-//W3C//DTD SVG 1.1//EN" "http://www.w3.org/Graphics/SVG/1.1/DTD/svg11.dtd"><svg t="1652942017308" class="icon" viewBox="0 0 1024 1024" version="1.1" xmlns="http://www.w3.org/2000/svg" p-id="4145" xmlns:xlink="http://www.w3.org/1999/xlink" width="200" height="200"><defs><style type="text/css">@font-face { font-family: feedback-iconfont; src: url("//at.alicdn.com/t/font_1031158_u69w8yhxdu.woff2?t=1630033759944") format("woff2"), url("//at.alicdn.com/t/font_1031158_u69w8yhxdu.woff?t=1630033759944") format("woff"), url("//at.alicdn.com/t/font_1031158_u69w8yhxdu.ttf?t=1630033759944") format("truetype"); }
</style></defs><path d="M551.68 353.216l62.4 62.4c39.68 39.68 62.4 96.384 62.4 158.72 0 62.4-22.72 119.104-68.096 158.848l-158.72 158.72C409.92 937.408 347.52 960 290.752 960c-56.704 0-113.408-22.656-158.72-68.032a225.92 225.92 0 0 1 0-323.2l119.04-119.168 79.36 79.36-119.04 119.168c-45.44 45.312-45.44 113.408 0 158.72 45.376 45.44 113.408 45.44 158.72 0l158.848-158.72a112 112 0 0 0 33.984-79.36c0-28.416-11.328-56.768-28.352-79.424l-62.336-56.768 79.36-79.36z m340.288-221.184a225.92 225.92 0 0 1 0 323.2l-119.104 119.168-79.36-79.36 119.04-119.168c45.44-45.312 45.44-113.408 0-158.72-45.376-45.44-119.04-45.44-158.72 0l-164.48 153.088c-45.44 45.376-45.44 113.408 0 158.72l62.336 62.464-79.36 79.36-62.4-56.704a225.92 225.92 0 0 1 0-323.2l158.784-158.848a225.92 225.92 0 0 1 323.2 0z" p-id="4146"></path></svg>