<?xml version="1.0" standalone="no"?><!DOCTYPE svg PUBLIC "-//W3C//DTD SVG 1.1//EN" "http://www.w3.org/Graphics/SVG/1.1/DTD/svg11.dtd"><svg class="icon" width="200px" height="200.00px" viewBox="0 0 1024 1024" version="1.1" xmlns="http://www.w3.org/2000/svg"><path d="M711.111111 85.333333a113.777778 113.777778 0 0 1 113.777778 113.777778v625.777778a113.777778 113.777778 0 0 1-113.777778 113.777778H312.888889a113.777778 113.777778 0 0 1-113.777778-113.777778V199.111111a113.777778 113.777778 0 0 1 113.777778-113.777778h398.222222z m56.888889 654.222223H256v85.333333a56.888889 56.888889 0 0 0 52.622222 56.746667L312.888889 881.777778h398.222222a56.888889 56.888889 0 0 0 56.746667-52.622222L768 824.888889v-85.333333z m-256 28.444444a42.666667 42.666667 0 1 1 0 85.333333 42.666667 42.666667 0 0 1 0-85.333333z m199.111111-625.777778H312.888889a56.888889 56.888889 0 0 0-56.746667 52.622222L256 199.111111v483.555556h512V199.111111a56.888889 56.888889 0 0 0-52.622222-56.746667L711.111111 142.222222z" /></svg>