<?xml version="1.0" standalone="no"?><!DOCTYPE svg PUBLIC "-//W3C//DTD SVG 1.1//EN" "http://www.w3.org/Graphics/SVG/1.1/DTD/svg11.dtd"><svg class="icon" width="200px" height="200.00px" viewBox="0 0 1024 1024" version="1.1" xmlns="http://www.w3.org/2000/svg"><path d="M739.555556 142.222222a28.444444 28.444444 0 0 1 3.328 56.689778L739.555556 199.111111H227.555556a28.444444 28.444444 0 0 0-28.245334 25.116445L199.111111 227.555556v568.888888a28.444444 28.444444 0 0 0 25.116445 28.245334L227.555556 824.888889h568.888888a28.444444 28.444444 0 0 0 28.245334-25.116445L824.888889 796.444444V455.111111a28.444444 28.444444 0 0 1 56.689778-3.328L881.777778 455.111111v341.333333a85.333333 85.333333 0 0 1-80.327111 85.191112L796.444444 881.777778H227.555556a85.333333 85.333333 0 0 1-85.191112-80.327111L142.222222 796.444444V227.555556a85.333333 85.333333 0 0 1 80.327111-85.191112L227.555556 142.222222h512z m170.666666 28.444445v85.333333L483.555556 711.111111l-170.666667-199.111111v-113.777778l170.666667 142.222222L910.222222 170.666667z" /></svg>