<?xml version="1.0" standalone="no"?><!DOCTYPE svg PUBLIC "-//W3C//DTD SVG 1.1//EN" "http://www.w3.org/Graphics/SVG/1.1/DTD/svg11.dtd"><svg t="1564025777587" class="icon" viewBox="0 0 1024 1024" version="1.1" xmlns="http://www.w3.org/2000/svg" p-id="11148" xmlns:xlink="http://www.w3.org/1999/xlink" width="200" height="200"><defs><style type="text/css"></style></defs><path d="M512 1020.032a15.808 15.808 0 0 1-11.2-4.8L345.6 860.032a119.68 119.68 0 0 1-26.432 36.736 135.168 135.168 0 0 1-99.2 40 131.008 131.008 0 0 1-96.768-43.968 136.96 136.96 0 0 1 2.368-186.368c11.264-11.2 24-20.8 38.4-28.032L8.896 523.2A15.808 15.808 0 0 1 3.968 512c0-4.032 1.6-8 4.864-11.2L185.6 323.968A16.64 16.64 0 0 1 201.6 320c5.568 1.6 9.6 6.4 11.2 12.032l0.768 1.6c0 0.768 0.832 2.368 0.832 3.2 4.032 19.968 13.568 37.568 28.032 51.968 19.968 20.032 47.168 31.168 75.2 30.4 28.8-0.832 55.168-12.8 74.368-33.6A104.832 104.832 0 0 0 390.4 243.2a103.168 103.168 0 0 0-50.368-28.8c-1.664-0.832-4.032-0.832-5.632-1.6l-3.2-0.832A15.872 15.872 0 0 1 320 200.896a15.232 15.232 0 0 1 4.032-15.232L500.8 8.832c6.4-5.632 16.832-5.632 22.4 0l168.768 168.768c1.664-4.8 2.432-9.6 4.032-13.568 6.4-24.832 19.2-48 37.632-65.664a136.96 136.96 0 0 1 186.368-2.368 135.168 135.168 0 0 1 4.032 196.032 138.432 138.432 0 0 1-68.032 36.736c-3.2 0.832-7.232 1.664-10.368 2.432l169.6 169.6c6.4 6.4 6.4 16 0 22.4L838.4 699.968a16.64 16.64 0 0 1-16 4.032 16.96 16.96 0 0 1-11.2-12.032l-0.832-1.536c0-0.832-0.768-2.432-0.768-3.2a100.672 100.672 0 0 0-28.032-52.032 102.592 102.592 0 0 0-75.2-30.4c-28.8 0.832-55.168 12.8-74.368 33.6A104.832 104.832 0 0 0 633.6 780.8c13.632 14.4 31.168 24 50.368 28.8 1.664 0.768 4.032 0.768 5.632 1.6l3.2 0.768c5.632 1.664 9.6 5.632 11.2 11.264a15.232 15.232 0 0 1-4.032 15.168l-176.768 176.832a15.808 15.808 0 0 1-11.2 4.8z" p-id="11149"></path></svg>