<?xml version="1.0" standalone="no"?><!DOCTYPE svg PUBLIC "-//W3C//DTD SVG 1.1//EN" "http://www.w3.org/Graphics/SVG/1.1/DTD/svg11.dtd"><svg t="1560692662392" class="icon" style="" viewBox="0 0 1024 1024" version="1.1" xmlns="http://www.w3.org/2000/svg" p-id="3933" xmlns:xlink="http://www.w3.org/1999/xlink" width="200" height="200"><defs><style type="text/css"></style></defs><path d="M647.021714 794.221714l-109.348571-108.544 309.101714-314.441143 114.139429 114.651429z" fill="#D9CBFF" p-id="3934"></path><path d="M817.444571 338.944l158.646858 158.646857-344.32 344.283429a36.571429 36.571429 0 0 1-51.712 0l-106.934858-106.898286a36.571429 36.571429 0 0 1 0-51.748571l344.32-344.283429z" fill="#DCDEE0" p-id="3935"></path><path d="M869.741714 338.358857l106.898286 106.934857a36.571429 36.571429 0 0 1 0 51.712l-359.899429 359.899429a18.285714 18.285714 0 0 1-6.729142 4.278857l-168.813715 60.854857a36.571429 36.571429 0 0 1-46.921143-46.445714l59.538286-170.496a18.285714 18.285714 0 0 1 4.352-6.875429l359.862857-359.862857a36.571429 36.571429 0 0 1 51.712 0z m81.042286 132.754286L843.885714 364.251429l-356.937143 356.900571-58.148571 166.509714 164.937143-59.465143 357.046857-357.010285z" fill="#969799" p-id="3936"></path><path d="M461.714286 721.152l133.705143 134.217143 25.929142-25.782857-133.741714-134.253715z" fill="#969799" p-id="3937"></path><path d="M541.549714 54.857143l211.858286 211.821714a18.285714 18.285714 0 1 0 25.856-25.856L556.726857 18.285714H108.470857A90.185143 90.185143 0 0 0 18.285714 108.470857v791.003429a90.185143 90.185143 0 0 0 90.185143 90.185143H719.725714a162.084571 162.084571 0 0 0 162.084572-162.121143 18.285714 18.285714 0 1 0-36.571429 0 125.513143 125.513143 0 0 1-125.513143 125.549714H108.470857c-29.622857 0-53.613714-24.027429-53.613714-53.613714V108.470857c0-29.622857 23.990857-53.613714 53.613714-53.613714h433.078857z" fill="#969799" p-id="3938"></path><path d="M159.817143 262.436571m18.688 0l261.741714 0q18.688 0 18.688 18.688l0 0q0 18.688-18.688 18.688l-261.741714 0q-18.688 0-18.688-18.688l0 0q0-18.688 18.688-18.688Z" fill="#969799" p-id="3939"></path><path d="M159.817143 412.013714m18.688 0l261.741714 0q18.688 0 18.688 18.688l0 0q0 18.688-18.688 18.688l-261.741714 0q-18.688 0-18.688-18.688l0 0q0-18.688 18.688-18.688Z" fill="#969799" p-id="3940"></path><path d="M159.817143 561.590857m18.688 0l261.741714 0q18.688 0 18.688 18.688l0 0q0 18.688-18.688 18.688l-261.741714 0q-18.688 0-18.688-18.688l0 0q0-18.688 18.688-18.688Z" fill="#969799" p-id="3941"></path></svg>