<?xml version="1.0" standalone="no"?><!DOCTYPE svg PUBLIC "-//W3C//DTD SVG 1.1//EN" "http://www.w3.org/Graphics/SVG/1.1/DTD/svg11.dtd"><svg class="icon" width="200px" height="200.00px" viewBox="0 0 1024 1024" version="1.1" xmlns="http://www.w3.org/2000/svg"><path d="M597.333333 199.111111a113.777778 113.777778 0 0 1 113.777778 113.777778v68.266667l154.311111-46.307556A56.888889 56.888889 0 0 1 938.666667 389.347556v245.304888a56.888889 56.888889 0 0 1-73.244445 54.499556L711.111111 642.844444V711.111111a113.777778 113.777778 0 0 1-113.777778 113.777778H199.111111a113.777778 113.777778 0 0 1-113.777778-113.777778V312.888889a113.777778 113.777778 0 0 1 113.777778-113.777778h398.222222z m0 56.888889H199.111111a56.888889 56.888889 0 0 0-56.746667 52.622222L142.222222 312.888889v398.222222a56.888889 56.888889 0 0 0 52.622222 56.746667L199.111111 768h398.222222a56.888889 56.888889 0 0 0 56.746667-52.622222L654.222222 711.111111V312.888889a56.888889 56.888889 0 0 0-52.622222-56.746667L597.333333 256z m284.444445 133.347556l-170.666667 51.2v142.904888l170.666667 51.2v-245.304888zM241.777778 312.888889a42.666667 42.666667 0 1 1 0 85.333333 42.666667 42.666667 0 0 1 0-85.333333z"  /></svg>