<?xml version="1.0" standalone="no"?><!DOCTYPE svg PUBLIC "-//W3C//DTD SVG 1.1//EN" "http://www.w3.org/Graphics/SVG/1.1/DTD/svg11.dtd"><svg class="icon" width="200px" height="200.00px" viewBox="0 0 1024 1024" version="1.1" xmlns="http://www.w3.org/2000/svg"><path d="M824.888889 142.222222a113.777778 113.777778 0 0 1 113.777778 113.777778v85.333333a56.888889 56.888889 0 0 1-52.622223 56.746667L881.777778 398.222222v398.222222a113.777778 113.777778 0 0 1-113.777778 113.777778H256a113.777778 113.777778 0 0 1-113.777778-113.777778V398.222222a56.888889 56.888889 0 0 1-56.888889-56.888889V256a113.777778 113.777778 0 0 1 113.777778-113.777778h625.777778z m0 256H199.111111v398.222222a56.888889 56.888889 0 0 0 52.622222 56.746667L256 853.333333h512a56.888889 56.888889 0 0 0 56.746667-52.622222L824.888889 796.444444V398.222222z m-113.777778 56.888889a28.444444 28.444444 0 0 1 0 56.888889H312.888889a28.444444 28.444444 0 0 1 0-56.888889h398.222222z m113.777778-256H199.111111a56.888889 56.888889 0 0 0-56.746667 52.622222L142.222222 256v85.333333h739.555556V256a56.888889 56.888889 0 0 0-52.622222-56.746667L824.888889 199.111111z"  /></svg>