<?xml version="1.0" standalone="no"?><!DOCTYPE svg PUBLIC "-//W3C//DTD SVG 1.1//EN" "http://www.w3.org/Graphics/SVG/1.1/DTD/svg11.dtd"><svg class="icon" width="200px" height="200.00px" viewBox="0 0 1024 1024" version="1.1" xmlns="http://www.w3.org/2000/svg"><path d="M824.888889 142.222222a113.777778 113.777778 0 0 1 113.777778 113.777778v512a113.777778 113.777778 0 0 1-108.088889 113.635556L824.888889 881.777778H182.869333A97.536 97.536 0 0 1 85.333333 784.241778l0.995556-1.137778A114.830222 114.830222 0 0 1 85.333333 768V256a113.777778 113.777778 0 0 1 113.777778-113.777778h625.777778zM403.683556 513.820444L150.186667 797.070222a56.888889 56.888889 0 0 0 44.657777 27.676445L199.111111 824.888889h625.777778a56.888889 56.888889 0 0 0 56.746667-52.622222L881.777778 768v-59.221333l-76.686222-83.968-92.216889 106.353777a85.333333 85.333333 0 0 1-126.577778 2.616889l-3.584-4.067555-179.029333-215.893334zM824.888889 199.111111H199.111111a56.888889 56.888889 0 0 0-56.746667 52.622222L142.222222 256v464.668444l219.079111-244.792888a56.888889 56.888889 0 0 1 86.186667 1.621333l179.029333 215.893333a28.444444 28.444444 0 0 0 43.377778 0.512l92.216889-106.353778a56.888889 56.888889 0 0 1 84.992-1.080888L881.777778 624.440889V256a56.888889 56.888889 0 0 0-52.622222-56.746667L824.888889 199.111111z m-106.666667 56.888889a92.444444 92.444444 0 1 1 0 184.888889 92.444444 92.444444 0 0 1 0-184.888889z m0 56.888889a35.555556 35.555556 0 1 0 0 71.111111 35.555556 35.555556 0 0 0 0-71.111111z"  /></svg>