<?xml version="1.0" standalone="no"?><!DOCTYPE svg PUBLIC "-//W3C//DTD SVG 1.1//EN" "http://www.w3.org/Graphics/SVG/1.1/DTD/svg11.dtd"><svg t="1621934813515" class="icon" viewBox="0 0 1024 1024" version="1.1" xmlns="http://www.w3.org/2000/svg" p-id="2465" xmlns:xlink="http://www.w3.org/1999/xlink" width="200" height="200"><defs><style type="text/css"></style></defs><path d="M796.444444 113.777778a113.777778 113.777778 0 0 1 113.777778 113.777778v568.888888a113.777778 113.777778 0 0 1-113.777778 113.777778H227.555556a113.777778 113.777778 0 0 1-113.777778-113.777778V227.555556a113.777778 113.777778 0 0 1 113.777778-113.777778h568.888888z m0 56.888889H227.555556a56.888889 56.888889 0 0 0-56.746667 52.622222L170.666667 227.555556v568.888888a56.888889 56.888889 0 0 0 52.622222 56.746667L227.555556 853.333333h568.888888a56.888889 56.888889 0 0 0 56.746667-52.622222L853.333333 796.444444V227.555556a56.888889 56.888889 0 0 0-52.622222-56.746667L796.444444 170.666667z m-85.333333 113.777777a28.444444 28.444444 0 0 1 0 56.888889h-170.666667v381.155556a28.444444 28.444444 0 0 1-56.888888 0V341.333333h-170.666667a28.444444 28.444444 0 0 1 0-56.888889h398.222222z" p-id="2466"></path></svg>