<?xml version="1.0" standalone="no"?><!DOCTYPE svg PUBLIC "-//W3C//DTD SVG 1.1//EN" "http://www.w3.org/Graphics/SVG/1.1/DTD/svg11.dtd"><svg class="icon" width="200px" height="200.00px" viewBox="0 0 1024 1024" version="1.1" xmlns="http://www.w3.org/2000/svg"><path d="M796.444444 113.777778a113.777778 113.777778 0 0 1 113.777778 113.777778v568.888888a113.777778 113.777778 0 0 1-113.777778 113.777778H227.555556a113.777778 113.777778 0 0 1-113.777778-113.777778V227.555556a113.777778 113.777778 0 0 1 113.777778-113.777778h568.888888z m0 56.888889H227.555556a56.888889 56.888889 0 0 0-56.746667 52.622222L170.666667 227.555556v568.888888a56.888889 56.888889 0 0 0 52.622222 56.746667L227.555556 853.333333h568.888888a56.888889 56.888889 0 0 0 56.746667-52.622222L853.333333 796.444444V227.555556a56.888889 56.888889 0 0 0-52.622222-56.746667L796.444444 170.666667z m-85.333333 483.555555a28.444444 28.444444 0 0 1 0 56.888889H312.888889a28.444444 28.444444 0 0 1 0-56.888889h398.222222z m0-113.777778a28.444444 28.444444 0 0 1 0 56.888889H312.888889a28.444444 28.444444 0 0 1 0-56.888889h398.222222z m0-113.777777a28.444444 28.444444 0 0 1 0 56.888889h-170.666667a28.444444 28.444444 0 0 1 0-56.888889h170.666667z m-227.555555-142.222223a28.444444 28.444444 0 0 1 0 56.888889h-56.888889v113.777778a28.444444 28.444444 0 0 1-56.888889 0v-113.777778h-56.888889a28.444444 28.444444 0 0 1 0-56.888889h170.666667z"  /></svg>