<?xml version="1.0" standalone="no"?><!DOCTYPE svg PUBLIC "-//W3C//DTD SVG 1.1//EN" "http://www.w3.org/Graphics/SVG/1.1/DTD/svg11.dtd"><svg t="1621588357836" class="icon" viewBox="0 0 1024 1024" version="1.1" xmlns="http://www.w3.org/2000/svg" p-id="2234" xmlns:xlink="http://www.w3.org/1999/xlink" width="200" height="200"><defs><style type="text/css"></style></defs><path d="M689.824 192H263.136A71.36 71.36 0 0 0 192 263.104v497.76A71.36 71.36 0 0 0 263.136 832h497.76C800 832 832 800 832 760.864V334.176L689.824 192zM512 760.864c-60.48 0-106.656-46.144-106.656-106.656 0-60.448 46.176-106.688 106.656-106.688 60.48 0 106.688 46.24 106.688 106.688 0 60.48-46.208 106.656-106.688 106.656m106.688-355.52H263.104V263.072h355.584v142.208z" p-id="2235"></path></svg>