<?xml version="1.0" standalone="no"?><!DOCTYPE svg PUBLIC "-//W3C//DTD SVG 1.1//EN" "http://www.w3.org/Graphics/SVG/1.1/DTD/svg11.dtd"><svg class="icon" width="200px" height="200.00px" viewBox="0 0 1024 1024" version="1.1" xmlns="http://www.w3.org/2000/svg"><path d="M398.222222 56.888889c188.501333 0 341.333333 152.832 341.333334 341.333333 0 84.024889-30.350222 160.938667-80.696889 220.416l24.832 24.775111a85.361778 85.361778 0 0 1 97.109333 16.696889l140.8 140.8a85.333333 85.333333 0 1 1-120.689778 120.661334l-140.8-140.8a85.361778 85.361778 0 0 1-16.696889-97.080889l-24.775111-24.832A339.968 339.968 0 0 1 398.222222 739.555556C209.720889 739.555556 56.888889 586.723556 56.888889 398.222222S209.720889 56.888889 398.222222 56.888889z m302.108445 643.441778a28.444444 28.444444 0 0 0-2.190223 37.745777l2.190223 2.503112 140.8 140.8a28.444444 28.444444 0 0 0 42.439111-37.774223l-2.218667-2.474666-140.8-140.8a28.444444 28.444444 0 0 0-40.220444 0zM398.222222 113.777778C241.123556 113.777778 113.777778 241.123556 113.777778 398.222222s127.345778 284.444444 284.444444 284.444445 284.444444-127.345778 284.444445-284.444445S555.320889 113.777778 398.222222 113.777778z"  /></svg>