<?xml version="1.0" standalone="no"?><!DOCTYPE svg PUBLIC "-//W3C//DTD SVG 1.1//EN" "http://www.w3.org/Graphics/SVG/1.1/DTD/svg11.dtd"><svg class="icon" width="200px" height="200.00px" viewBox="0 0 1024 1024" version="1.1" xmlns="http://www.w3.org/2000/svg"><path d="M234.183111 566.442667l-1.934222 2.56A28.444444 28.444444 0 0 0 256 613.148444h164.693333l-50.403555 263.310223c-5.518222 28.785778 30.833778 46.08 49.692444 23.665777l369.777778-439.324444 1.962667-2.56A28.444444 28.444444 0 0 0 768 413.980444h-164.778667l50.517334-266.496c5.432889-28.814222-31.004444-46.023111-49.777778-23.523555l-369.777778 442.453333zM577.422222 244.394667l-36.522666 192.768-0.426667 3.271111A28.444444 28.444444 0 0 0 568.888889 470.897778h137.955555l-260.181333 309.134222 36.408889-190.008889 0.398222-3.271111A28.444444 28.444444 0 0 0 455.111111 556.231111h-138.296889l260.636445-311.836444z"  /></svg>