<?xml version="1.0" standalone="no"?><!DOCTYPE svg PUBLIC "-//W3C//DTD SVG 1.1//EN" "http://www.w3.org/Graphics/SVG/1.1/DTD/svg11.dtd"><svg class="icon" width="200px" height="200.00px" viewBox="0 0 1024 1024" version="1.1" xmlns="http://www.w3.org/2000/svg"><path d="M739.555556 113.777778a113.777778 113.777778 0 0 1 113.777777 113.777778v608.199111a28.444444 28.444444 0 0 1-41.159111 25.429333l-279.011555-139.52-348.700445 193.564444A28.444444 28.444444 0 0 1 142.222222 890.311111V227.555556a113.777778 113.777778 0 0 1 113.777778-113.777778h483.555556z m0 56.888889H256a56.888889 56.888889 0 0 0-56.746667 52.622222L199.111111 227.555556v614.428444l597.333333-331.52V227.555556a56.888889 56.888889 0 0 0-52.622222-56.746667L739.555556 170.666667z m56.888888 411.363555l-192.853333 111.274667 192.853333 96.426667v-207.701334zM696.888889 256a28.444444 28.444444 0 0 1 0 56.888889h-398.222222a28.444444 28.444444 0 0 1 0-56.888889h398.222222z"  /></svg>