<?xml version="1.0" standalone="no"?><!DOCTYPE svg PUBLIC "-//W3C//DTD SVG 1.1//EN" "http://www.w3.org/Graphics/SVG/1.1/DTD/svg11.dtd"><svg t="1622203690119" class="icon" viewBox="0 0 1024 1024" version="1.1" xmlns="http://www.w3.org/2000/svg" p-id="5352" xmlns:xlink="http://www.w3.org/1999/xlink" width="200" height="200"><defs><style type="text/css"></style></defs><path d="M861.269333 512c0-21.290667-2.304-36.693333-2.304-36.693333-2.090667-14.08 6.485333-31.317333 19.029334-38.4l47.530666-26.794667a25.514667 25.514667 0 0 0 9.642667-35.2l-90.112-152.405333a26.794667 26.794667 0 0 0-36.053333-9.472l-47.402667 26.752c-12.586667 7.082667-32.213333 5.76-43.690667-2.944 0 0-12.629333-9.6-31.061333-20.010667-18.56-10.453333-34.048-16.64-34.048-16.64-13.397333-5.333333-24.405333-21.333333-24.405333-35.456V111.104A26.154667 26.154667 0 0 0 602.026667 85.333333H421.973333a26.154667 26.154667 0 0 0-26.368 25.770667v53.632c0 14.165333-11.008 30.122667-24.448 35.498667 0 0-15.488 6.144-33.962666 16.554666a304.213333 304.213333 0 0 0-31.146667 20.053334c-11.434667 8.704-31.061333 10.026667-43.648 2.944l-47.445333-26.794667a26.794667 26.794667 0 0 0-36.010667 9.429333l-90.026667 152.490667a25.557333 25.557333 0 0 0 9.6 35.2l47.488 26.794667c12.544 7.082667 21.12 24.32 19.029334 38.4 0 0-2.304 15.402667-2.304 36.693333 0 21.333333 2.304 36.778667 2.304 36.778667 2.090667 14.037333-6.485333 31.274667-19.072 38.4l-47.402667 26.709333a25.514667 25.514667 0 0 0-9.685333 35.2l90.112 152.490667c7.253333 12.245333 23.466667 16.512 36.053333 9.386666l47.445333-26.752c12.544-7.082667 32.170667-5.76 43.605334 2.986667a316.117333 316.117333 0 0 0 65.066666 36.565333c13.44 5.376 24.448 21.333333 24.448 35.498667v53.632c0 14.165333 11.861333 25.770667 26.368 25.770667h180.096c14.506667 0 26.368-11.605333 26.368-25.770667v-53.632c0-14.165333 11.008-30.122667 24.448-35.498667 0 0 15.36-6.101333 33.706667-16.426666 18.56-10.453333 31.317333-20.181333 31.317333-20.181334 11.477333-8.704 31.104-10.026667 43.648-2.944l47.530667 26.794667a26.794667 26.794667 0 0 0 36.010667-9.429333l90.026666-152.490667a25.514667 25.514667 0 0 0-9.642666-35.2l-47.445334-26.752c-12.544-7.082667-21.12-24.32-19.029333-38.4 0 0 2.304-15.402667 2.304-36.736z m-349.312 142.208c-80.384 0-145.493333-63.658667-145.493333-142.208 0-78.549333 65.109333-142.208 145.493333-142.208 80.384 0 145.536 63.658667 145.536 142.208 0 78.549333-65.152 142.208-145.493333 142.208z" p-id="5353"></path></svg>