<?xml version="1.0" standalone="no"?><!DOCTYPE svg PUBLIC "-//W3C//DTD SVG 1.1//EN" "http://www.w3.org/Graphics/SVG/1.1/DTD/svg11.dtd"><svg class="icon" width="200px" height="200.00px" viewBox="0 0 1024 1024" version="1.1" xmlns="http://www.w3.org/2000/svg"><path d="M768 113.777778a113.777778 113.777778 0 0 1 113.777778 113.777778v568.888888a113.777778 113.777778 0 0 1-113.777778 113.777778H256a113.777778 113.777778 0 0 1-113.777778-113.777778V227.555556a113.777778 113.777778 0 0 1 113.777778-113.777778h512z m0 56.888889H256a56.888889 56.888889 0 0 0-56.746667 52.622222L199.111111 227.555556v568.888888a56.888889 56.888889 0 0 0 52.622222 56.746667L256 853.333333h512a56.888889 56.888889 0 0 0 56.746667-52.622222L824.888889 796.444444V227.555556a56.888889 56.888889 0 0 0-52.622222-56.746667L768 170.666667z m-56.888889 540.444444a28.444444 28.444444 0 0 1 0 56.888889H312.888889a28.444444 28.444444 0 0 1 0-56.888889h398.222222z m0-113.777778a28.444444 28.444444 0 0 1 0 56.888889H312.888889a28.444444 28.444444 0 0 1 0-56.888889h398.222222z m0-113.777777a28.444444 28.444444 0 0 1 0 56.888888H312.888889a28.444444 28.444444 0 0 1 0-56.888888h398.222222z m-262.599111-232.732445l40.220444 40.220445-140.8 140.8h-40.220444v-40.220445l140.8-140.8z m40.220444-20.110222l20.110223 20.110222a14.222222 14.222222 0 0 1 0 20.110222l-10.040889 10.069334-40.248889-40.248889 10.069333-10.040889a14.222222 14.222222 0 0 1 20.110222 0z" /></svg>