<?xml version="1.0" standalone="no"?><!DOCTYPE svg PUBLIC "-//W3C//DTD SVG 1.1//EN" "http://www.w3.org/Graphics/SVG/1.1/DTD/svg11.dtd"><svg class="icon" width="200px" height="200.00px" viewBox="0 0 1024 1024" version="1.1" xmlns="http://www.w3.org/2000/svg"><path d="M552.106667 104.391111L755.569778 312.888889H824.888889a113.777778 113.777778 0 0 1 113.777778 113.777778v369.777777a113.777778 113.777778 0 0 1-113.777778 113.777778H199.111111a113.777778 113.777778 0 0 1-113.777778-113.777778V426.666667a113.777778 113.777778 0 0 1 113.777778-113.777778h69.973333l202.552889-207.530667a56.888889 56.888889 0 0 1 80.440889-0.967111zM824.888889 369.777778H199.111111a56.888889 56.888889 0 0 0-56.746667 52.622222L142.222222 426.666667v369.777777a56.888889 56.888889 0 0 0 52.622222 56.746667L199.111111 853.333333h625.777778a56.888889 56.888889 0 0 0 56.746667-52.622222L881.777778 796.444444V426.666667a56.888889 56.888889 0 0 0-52.622222-56.746667L824.888889 369.777778z m-28.444445 284.444444a28.444444 28.444444 0 0 1 0 56.888889H227.555556a28.444444 28.444444 0 0 1 0-56.888889h568.888888z m-284.444444-142.222222a28.444444 28.444444 0 0 1 0 56.888889H227.555556a28.444444 28.444444 0 0 1 0-56.888889h284.444444z m0.341333-366.933333l-163.185777 167.253333H675.555556L512.341333 145.066667z"  /></svg>