<?xml version="1.0" standalone="no"?><!DOCTYPE svg PUBLIC "-//W3C//DTD SVG 1.1//EN" "http://www.w3.org/Graphics/SVG/1.1/DTD/svg11.dtd"><svg class="icon" width="200px" height="200.00px" viewBox="0 0 1024 1024" version="1.1" xmlns="http://www.w3.org/2000/svg"><path d="M277.134222 746.865778a28.444444 28.444444 0 0 1 6.826667 29.184c0.341333 1.991111 0.483556 4.067556 0.483555 6.172444v85.333334A42.666667 42.666667 0 0 1 241.777778 910.222222h-85.333334A42.666667 42.666667 0 0 1 113.777778 867.555556v-85.333334A42.666667 42.666667 0 0 1 156.444444 739.555556h85.333334c2.104889 0 4.181333 0.142222 6.200889 0.455111a28.444444 28.444444 0 0 1 29.155555 6.855111zM227.555556 796.444444H170.666667v56.888889h56.888889v-56.888889z m130.019555-130.019555a28.444444 28.444444 0 0 1 2.360889 37.546667l-2.360889 2.673777-20.110222 20.110223a28.444444 28.444444 0 0 1-42.581333-37.546667l2.360888-2.673778 20.110223-20.110222a28.444444 28.444444 0 0 1 40.220444 0zM438.044444 585.955556a28.444444 28.444444 0 0 1 2.389334 37.546666l-2.389334 2.673778-20.110222 20.110222a28.444444 28.444444 0 0 1-42.581333-37.546666l2.360889-2.673778 20.110222-20.110222a28.444444 28.444444 0 0 1 40.220444 0z m80.469334-80.469334a28.444444 28.444444 0 0 1 2.360889 37.546667l-2.360889 2.673778-20.110222 20.110222a28.444444 28.444444 0 0 1-42.609778-37.546667l2.389333-2.673778 20.110222-20.110222a28.444444 28.444444 0 0 1 40.220445 0z m80.440889-80.440889a28.444444 28.444444 0 0 1 2.389333 37.546667l-2.389333 2.673778-20.110223 20.110222a28.444444 28.444444 0 0 1-42.581333-37.546667l2.360889-2.673777 20.110222-20.110223a28.444444 28.444444 0 0 1 40.220445 0z m80.469333-80.469333a28.444444 28.444444 0 0 1 2.360889 37.546667l-2.360889 2.673777-20.110222 20.138667a28.444444 28.444444 0 0 1-42.609778-37.546667l2.360889-2.702222 20.138667-20.110222a28.444444 28.444444 0 0 1 40.220444 0zM867.555556 113.777778A42.666667 42.666667 0 0 1 910.222222 156.444444v85.333334a42.666667 42.666667 0 0 1-42.666666 42.666666h-85.333334c-4.949333 0-9.728-0.853333-14.165333-2.417777a28.273778 28.273778 0 0 1-5.859556 19.683555l-2.360889 2.673778-20.110222 20.110222a28.444444 28.444444 0 0 1-42.581333-37.546666l2.360889-2.673778 20.110222-20.110222a28.387556 28.387556 0 0 1 22.357333-8.248889A41.898667 41.898667 0 0 1 739.555556 241.777778v-85.333334A42.666667 42.666667 0 0 1 782.222222 113.777778zM853.333333 170.666667h-56.888889v56.888889h56.888889V170.666667z"  /></svg>