<?xml version="1.0" standalone="no"?><!DOCTYPE svg PUBLIC "-//W3C//DTD SVG 1.1//EN" "http://www.w3.org/Graphics/SVG/1.1/DTD/svg11.dtd"><svg class="icon" width="200px" height="200.00px" viewBox="0 0 1024 1024" version="1.1" xmlns="http://www.w3.org/2000/svg"><path d="M440.832 455.111111l5.518222 0.142222A99.555556 99.555556 0 0 1 540.444444 554.666667l-0.028444 99.555555H625.777778a85.333333 85.333333 0 0 1 85.191111 80.327111L711.111111 739.555556v113.777777a85.333333 85.333333 0 0 1-85.333333 85.333334h-232.448a85.333333 85.333333 0 0 1-60.302222-25.002667l-111.36-111.331556a88.775111 88.775111 0 0 1 0-125.553777 102.115556 102.115556 0 0 1 118.812444-18.659556l0.967111 0.512-0.056889-103.936a99.498667 99.498667 0 0 1 93.980445-99.441778l5.461333-0.142222z m0.056889 56.888889l-4.096 0.199111a42.609778 42.609778 0 0 0-38.513778 42.439111l0.113778 156.444445a28.444444 28.444444 0 0 1-44.202667 23.722666l-35.271111-23.466666a45.226667 45.226667 0 0 0-57.031111 5.688889 31.886222 31.886222 0 0 0 0 45.084444l111.331556 111.331556a28.444444 28.444444 0 0 0 20.110222 8.334222H625.777778a28.444444 28.444444 0 0 0 28.444444-28.444445v-113.777777a28.444444 28.444444 0 0 0-28.444444-28.444445h-113.777778a28.444444 28.444444 0 0 1-28.444444-28.444444v-128a42.666667 42.666667 0 0 0-42.666667-42.666667zM824.888889 142.222222a85.333333 85.333333 0 0 1 85.191111 80.327111L910.222222 227.555556v284.444444a85.333333 85.333333 0 0 1-80.327111 85.191111L824.888889 597.333333h-200.419556a28.444444 28.444444 0 0 1-3.299555-56.689777l3.299555-0.199112H824.888889a28.444444 28.444444 0 0 0 28.245333-25.116444L853.333333 512V227.555556a28.444444 28.444444 0 0 0-25.116444-28.245334L824.888889 199.111111H199.111111a28.444444 28.444444 0 0 0-28.245333 25.116445L170.666667 227.555556v284.444444a28.444444 28.444444 0 0 0 25.116444 28.245333L199.111111 540.444444h57.287111a28.444444 28.444444 0 0 1 3.328 56.689778L256.398222 597.333333H199.111111a85.333333 85.333333 0 0 1-85.191111-80.327111L113.777778 512V227.555556a85.333333 85.333333 0 0 1 80.327111-85.191112L199.111111 142.222222h625.777778z m-384 227.555556a184.888889 184.888889 0 0 1 166.4 104.192 28.444444 28.444444 0 0 1-51.2 24.860444 128 128 0 0 0-231.537778 2.304 28.444444 28.444444 0 0 1-51.626667-23.808A184.888889 184.888889 0 0 1 440.888889 369.777778z" /></svg>