<?xml version="1.0" standalone="no"?><!DOCTYPE svg PUBLIC "-//W3C//DTD SVG 1.1//EN" "http://www.w3.org/Graphics/SVG/1.1/DTD/svg11.dtd"><svg t="1566531161786" class="icon" viewBox="0 0 1095 1024" version="1.1" xmlns="http://www.w3.org/2000/svg" p-id="9379" xmlns:xlink="http://www.w3.org/1999/xlink" width="68.4375" height="64"><defs><style type="text/css"></style></defs><path d="M391.159096 699.94407h-356.173913c-16.223722 0-32.438539 16.223722-32.43854 32.438539v250.915617c0 16.214817 16.214817 32.429635 32.43854 32.429635h339.950191c32.376209 0 48.528696-16.214817 48.528696-48.653357V732.382609c0-16.214817-16.152487-32.438539-32.376209-32.438539h0.071235z m0-696.124105h-356.173913C18.761461 3.819965 2.546643 20.034783 2.546643 36.240696v509.907478c0 16.214817 16.214817 32.438539 32.43854 32.438539h356.173913c16.152487 0 32.304974-16.223722 32.304974-32.438539V36.240696c0-16.152487-16.152487-32.367304-32.376209-32.367305l0.071235-0.06233z m663.685565 445.217392H593.474783c-16.214817 0-32.438539 16.214817-32.43854 32.429634v509.907479c0 16.214817 16.223722 32.438539 32.43854 32.438539h461.369878c16.223722 0 32.438539-16.223722 32.438539-32.438539V481.458087c0-16.152487-16.214817-32.367304-32.438539-32.367304v-0.062331z m0-445.217392H593.474783c-16.214817 0-32.438539 16.214817-32.43854 32.429635V287.165217c0 16.152487 16.223722 32.376209 32.43854 32.376209h461.369878c16.223722 0 32.438539-16.223722 32.438539-32.438539V36.240696c0-16.152487-16.214817-32.367304-32.438539-32.367305V3.819965z" fill="#000000" p-id="9380"></path></svg>