<?xml version="1.0" standalone="no"?><!DOCTYPE svg PUBLIC "-//W3C//DTD SVG 1.1//EN" "http://www.w3.org/Graphics/SVG/1.1/DTD/svg11.dtd"><svg class="icon" width="200px" height="200.00px" viewBox="0 0 1024 1024" version="1.1" xmlns="http://www.w3.org/2000/svg"><path d="M509.696 103.936c91.392 0 163.2 18.496 214.336 56.576 54.4 40.256 85.952 103.36 93.568 188.224h-126.208c-10.88-47.872-31.552-82.688-59.84-103.36-28.288-21.76-71.808-31.552-128.384-31.552-48.96 0-85.952 6.528-112.064 20.672-32.64 16.32-47.872 43.52-47.872 80.512 0 32.64 17.408 59.84 54.4 79.424 16.32 8.704 60.928 25.024 132.736 47.872L548.672 448H896v128h-96c23.36 31.168 35.008 67.776 35.008 110.016 0 69.632-27.2 125.12-81.6 165.376-54.4 39.168-131.648 59.84-230.656 59.84-95.744 0-170.816-18.496-224.128-55.488-65.28-45.696-101.184-117.504-106.624-216.512h126.208c8.704 58.752 29.376 101.184 63.104 126.208 30.464 21.76 77.248 33.728 141.44 33.728 56.576 0 102.272-9.792 134.912-28.288 32.64-19.584 50.048-44.608 50.048-77.248 0-41.344-25.024-73.984-72.896-97.92a510.08 510.08 0 0 0-52.032-19.648L128 576V448l136.768 0.064c-32.704-32.832-48.832-74.688-48.832-125.44 0-68.544 28.288-122.944 87.04-162.112 54.4-38.08 122.944-56.576 206.72-56.576z"  /></svg>