<?xml version="1.0" standalone="no"?><!DOCTYPE svg PUBLIC "-//W3C//DTD SVG 1.1//EN" "http://www.w3.org/Graphics/SVG/1.1/DTD/svg11.dtd"><svg class="icon" width="200px" height="200.00px" viewBox="0 0 1024 1024" version="1.1" xmlns="http://www.w3.org/2000/svg"><path d="M192 896V128h404.224C726.4 128 832 228.288 832 352c0 62.72-27.136 119.424-70.848 160A217.6 217.6 0 0 1 832 672c0 123.712-105.6 224-235.776 224H192z m134.72-320v192h269.44c55.872 0 101.12-43.008 101.12-96 0-52.736-44.8-95.552-100.224-96H326.72z m269.44-320h-269.44v192h269.44c55.872 0 101.12-43.008 101.12-96S652.032 256 596.16 256z"  /></svg>