<?xml version="1.0" standalone="no"?><!DOCTYPE svg PUBLIC "-//W3C//DTD SVG 1.1//EN" "http://www.w3.org/Graphics/SVG/1.1/DTD/svg11.dtd"><svg class="icon" width="200px" height="200.00px" viewBox="0 0 1024 1024" version="1.1" xmlns="http://www.w3.org/2000/svg"><path d="M824.888889 142.222222a113.777778 113.777778 0 0 1 113.777778 113.777778v512a113.777778 113.777778 0 0 1-113.777778 113.777778H199.111111a113.777778 113.777778 0 0 1-113.777778-113.777778V256a113.777778 113.777778 0 0 1 113.777778-113.777778h625.777778z m0 56.888889H199.111111a56.888889 56.888889 0 0 0-56.746667 52.622222L142.222222 256v512a56.888889 56.888889 0 0 0 52.622222 56.746667L199.111111 824.888889h625.777778a56.888889 56.888889 0 0 0 56.746667-52.622222L881.777778 768V256a56.888889 56.888889 0 0 0-52.622222-56.746667L824.888889 199.111111z m-312.888889 142.222222a28.444444 28.444444 0 0 1 0 56.888889h-85.333333v227.555556a28.444444 28.444444 0 0 1-56.888889 0v-227.555556h-85.333334a28.444444 28.444444 0 0 1 0-56.888889h227.555556z m159.658667 62.862223l2.673777 2.360888 85.333334 85.333334a28.444444 28.444444 0 0 1 2.360889 37.546666l-2.360889 2.673778-85.333334 85.333334a28.444444 28.444444 0 0 1-42.581333-37.546667l2.360889-2.673778L699.306667 512l-65.194667-65.223111a28.444444 28.444444 0 0 1-2.360889-37.546667l2.360889-2.673778a28.444444 28.444444 0 0 1 37.546667-2.360888z"  /></svg>