<?xml version="1.0" standalone="no"?><!DOCTYPE svg PUBLIC "-//W3C//DTD SVG 1.1//EN" "http://www.w3.org/Graphics/SVG/1.1/DTD/svg11.dtd"><svg t="1566531411450" class="icon" viewBox="0 0 1024 1024" version="1.1" xmlns="http://www.w3.org/2000/svg" p-id="9505" xmlns:xlink="http://www.w3.org/1999/xlink" width="64" height="64"><defs><style type="text/css"></style></defs><path d="M782.628571 0a241.664 241.664 0 0 1 240.859429 240.932571 240.420571 240.420571 0 0 1-240.347429 240.420572H598.966857a56.978286 56.978286 0 0 1-56.758857-56.832V240.420571A240.420571 240.420571 0 0 1 782.628571 0z m0 44.836571a195.657143 195.657143 0 0 0-195.657142 195.584v184.100572c0 6.509714 5.558857 11.995429 11.995428 11.995428h184.173714a195.657143 195.657143 0 0 0 195.584-195.584A196.827429 196.827429 0 0 0 782.628571 44.836571zM240.420571 0A240.859429 240.859429 0 0 1 481.28 240.420571v183.588572c0 31.232-25.6 56.832-56.832 56.832H240.420571A240.786286 240.786286 0 0 1 0 240.420571 240.786286 240.786286 0 0 1 240.420571 0z m0 44.836571A196.022857 196.022857 0 0 0 44.763429 240.420571 196.022857 196.022857 0 0 0 240.420571 435.931429h184.100572a12.214857 12.214857 0 0 0 11.995428-11.995429v-183.588571A196.022857 196.022857 0 0 0 240.420571 44.763429z m358.034286 496.859429H782.628571c132.388571 0 239.908571 108.397714 239.908572 240.932571a240.786286 240.786286 0 0 1-240.420572 240.347429A240.420571 240.420571 0 0 1 541.696 782.628571V598.454857c0-31.232 25.6-56.758857 56.758857-56.758857z m-173.933714 0c31.232 0 56.832 25.6 56.32 56.246857v184.173714a240.786286 240.786286 0 0 1-240.420572 240.347429A240.786286 240.786286 0 0 1 0 782.116571a240.420571 240.420571 0 0 1 240.420571-240.420571h184.100572z m0 44.763429H240.420571a195.657143 195.657143 0 0 0-195.657142 195.657142 196.022857 196.022857 0 0 0 195.657142 195.584 196.022857 196.022857 0 0 0 195.584-195.584V597.211429c0.073143-5.485714-5.12-10.752-11.483428-10.752z" p-id="9506"></path></svg>