<?xml version="1.0" standalone="no"?><!DOCTYPE svg PUBLIC "-//W3C//DTD SVG 1.1//EN" "http://www.w3.org/Graphics/SVG/1.1/DTD/svg11.dtd"><svg class="icon" width="200px" height="200.00px" viewBox="0 0 1024 1024" version="1.1" xmlns="http://www.w3.org/2000/svg"><path d="M824.888889 142.222222a113.777778 113.777778 0 0 1 113.777778 113.777778v512a113.777778 113.777778 0 0 1-108.088889 113.635556L824.888889 881.777778H199.111111a113.777778 113.777778 0 0 1-113.777778-113.777778V256a113.777778 113.777778 0 0 1 113.777778-113.777778h625.777778z m56.888889 284.444445H142.222222v341.333333a56.888889 56.888889 0 0 0 52.622222 56.746667L199.111111 824.888889h625.777778a56.888889 56.888889 0 0 0 56.746667-52.622222L881.777778 768V426.666667z m-56.888889-227.555556H199.111111a56.888889 56.888889 0 0 0-56.746667 52.622222L142.222222 256v113.777778h739.555556V256a56.888889 56.888889 0 0 0-52.622222-56.746667L824.888889 199.111111z m-199.111111 56.888889a28.444444 28.444444 0 0 1 0 56.888889H227.555556a28.444444 28.444444 0 0 1 0-56.888889h398.222222z"  /></svg>