<?xml version="1.0" standalone="no"?><!DOCTYPE svg PUBLIC "-//W3C//DTD SVG 1.1//EN" "http://www.w3.org/Graphics/SVG/1.1/DTD/svg11.dtd"><svg class="icon" width="200px" height="200.00px" viewBox="0 0 1024 1024" version="1.1" xmlns="http://www.w3.org/2000/svg"><path d="M312.888889 483.555556a28.444444 28.444444 0 0 1 3.328 56.689777L312.888889 540.444444H199.111111a28.444444 28.444444 0 0 0-28.245333 25.116445L170.666667 568.888889v227.555555a28.444444 28.444444 0 0 0 25.116444 28.245334L199.111111 824.888889h625.777778a28.444444 28.444444 0 0 0 28.245333-25.116445L853.333333 796.444444v-227.555555a28.444444 28.444444 0 0 0-25.116444-28.245333L824.888889 540.444444h-113.777778a28.444444 28.444444 0 0 1-3.328-56.689777L711.111111 483.555556h113.777778a85.333333 85.333333 0 0 1 85.191111 80.327111L910.222222 568.888889v227.555555a85.333333 85.333333 0 0 1-80.327111 85.191112L824.888889 881.777778H199.111111a85.333333 85.333333 0 0 1-85.191111-80.327111L113.777778 796.444444v-227.555555a85.333333 85.333333 0 0 1 80.327111-85.191111L199.111111 483.555556h113.777778z m199.111111-341.333334h0.568889c0.654222 0 1.308444 0.056889 1.991111 0.113778L512 142.222222a28.672 28.672 0 0 1 17.777778 6.257778l2.332444 2.076444 170.666667 170.666667a28.444444 28.444444 0 0 1-37.546667 42.581333l-2.673778-2.360888L540.444444 239.331556V682.666667a28.444444 28.444444 0 0 1-56.689777 3.328L483.555556 682.666667V239.331556l-122.112 122.112a28.444444 28.444444 0 0 1-37.546667 2.360888l-2.673778-2.360888a28.444444 28.444444 0 0 1-2.360889-37.546667l2.360889-2.673778 170.666667-170.666667 2.332444-2.076444 0.227556-0.199111-2.56 2.275555A28.672 28.672 0 0 1 511.488 142.222222H512z" /></svg>