<?xml version="1.0" standalone="no"?><!DOCTYPE svg PUBLIC "-//W3C//DTD SVG 1.1//EN" "http://www.w3.org/Graphics/SVG/1.1/DTD/svg11.dtd"><svg class="icon" width="200px" height="200.00px" viewBox="0 0 1024 1024" version="1.1" xmlns="http://www.w3.org/2000/svg"><path d="M824.888889 142.222222a113.777778 113.777778 0 0 1 113.777778 113.777778v512a113.777778 113.777778 0 0 1-113.777778 113.777778H199.111111a113.777778 113.777778 0 0 1-113.777778-113.777778V256a113.777778 113.777778 0 0 1 113.777778-113.777778h625.777778z m0 56.888889H199.111111a56.888889 56.888889 0 0 0-56.746667 52.622222L142.222222 256v512a56.888889 56.888889 0 0 0 52.622222 56.746667L199.111111 824.888889h625.777778a56.888889 56.888889 0 0 0 56.746667-52.622222L881.777778 768V256a56.888889 56.888889 0 0 0-52.622222-56.746667L824.888889 199.111111z m-390.001778 149.333333a34.133333 34.133333 0 0 1 18.090667 5.176889l211.114666 131.953778a34.133333 34.133333 0 0 1 0 57.884445l-211.114666 131.982222a34.133333 34.133333 0 0 1-52.224-28.956445v-263.936a34.133333 34.133333 0 0 1 34.133333-34.133333z m22.755556 75.150223v181.845333l145.436444-90.908444-145.436444-90.936889z"  /></svg>