<?xml version="1.0" standalone="no"?><!DOCTYPE svg PUBLIC "-//W3C//DTD SVG 1.1//EN" "http://www.w3.org/Graphics/SVG/1.1/DTD/svg11.dtd"><svg class="icon" width="200px" height="200.00px" viewBox="0 0 1024 1024" version="1.1" xmlns="http://www.w3.org/2000/svg"><path d="M568.888889 568.888889a142.222222 142.222222 0 0 1 142.222222 142.222222v85.333333a56.888889 56.888889 0 0 1-56.888889 56.888889H142.222222a56.888889 56.888889 0 0 1-56.888889-56.888889v-85.333333a142.222222 142.222222 0 0 1 142.222223-142.222222h341.333333z m139.320889 0H824.888889a113.777778 113.777778 0 0 1 113.777778 113.777778v56.888889a56.888889 56.888889 0 0 1-56.888889 56.888888h-113.777778v-56.888888h113.777778v-56.888889a56.888889 56.888889 0 0 0-52.622222-56.746667L824.888889 625.777778h-76.060445a199.623111 199.623111 0 0 0-40.618666-56.888889zM568.888889 625.777778H227.555556a85.333333 85.333333 0 0 0-85.191112 80.327111L142.222222 711.111111v85.333333h512v-85.333333a85.333333 85.333333 0 0 0-80.327111-85.191111L568.888889 625.777778z m113.777778-369.777778a142.222222 142.222222 0 1 1-12.003556 283.932444 197.603556 197.603556 0 0 0-69.745778-25.372444 141.482667 141.482667 0 0 1-28.615111-26.652444 228.067556 228.067556 0 0 0 33.365334-52.906667 85.333333 85.333333 0 1 0 19.996444-100.266667 226.417778 226.417778 0 0 0-10.353778-61.781333A141.312 141.312 0 0 1 682.666667 256zM398.222222 170.666667a170.666667 170.666667 0 1 1 0 341.333333 170.666667 170.666667 0 0 1 0-341.333333z m0 56.888889a113.777778 113.777778 0 1 0 0 227.555555 113.777778 113.777778 0 0 0 0-227.555555z"  /></svg>